<svg width="24" height="24" viewBox="0 0 24 24" fill="none" xmlns="http://www.w3.org/2000/svg">
<circle cx="12.5788" cy="6.51432" r="3.90924" stroke="white" stroke-width="1.55"/>
<path d="M12.5811 13.264C14.4804 13.264 16.433 13.5384 17.8836 14.3194C18.5983 14.7042 19.1747 15.2028 19.5747 15.8396C19.9728 16.4733 20.223 17.286 20.223 18.3443C20.223 19.8395 19.3464 20.8624 17.9974 20.947C16.7701 21.024 15.0307 21.0825 12.5811 21.0825C10.1315 21.0825 8.39204 21.024 7.1647 20.947C5.81571 20.8624 4.93906 19.8395 4.93906 18.3443C4.93906 17.286 5.1893 16.4733 5.58741 15.8396C5.98745 15.2028 6.56384 14.7042 7.27848 14.3194C8.72916 13.5384 10.6817 13.264 12.5811 13.264Z" stroke="white" stroke-width="1.55"/>
</svg>
