<svg width="31" height="32" viewBox="0 0 31 32" fill="none" xmlns="http://www.w3.org/2000/svg">
<path d="M13.0913 22C13.0913 24.7312 10.9554 26.8843 8.39453 26.8843C5.83371 26.8843 3.69777 24.7312 3.69777 22C3.69777 19.2688 5.83371 17.1157 8.39453 17.1157C10.9554 17.1157 13.0913 19.2688 13.0913 22Z" stroke="white" stroke-width="2.23148"/>
<path d="M22.979 26.6669C22.979 28.0604 21.8971 29.1048 20.666 29.1048C19.435 29.1048 18.3531 28.0604 18.3531 26.6669C18.3531 25.2733 19.435 24.2289 20.666 24.2289C21.8971 24.2289 22.979 25.2733 22.979 26.6669Z" stroke="white" stroke-width="3.12407"/>
<path d="M27.3003 10.6671C27.3003 14.5028 24.2969 17.5514 20.666 17.5514C17.0351 17.5514 14.0318 14.5028 14.0318 10.6671C14.0318 6.83139 17.0351 3.78285 20.666 3.78285C24.2969 3.78285 27.3003 6.83139 27.3003 10.6671Z" stroke="white" stroke-width="2.23148"/>
</svg>
