<svg width="46" height="45" viewBox="0 0 46 45" fill="none" xmlns="http://www.w3.org/2000/svg">
<g clip-path="url(#clip0_402_2)">
<path fill-rule="evenodd" clip-rule="evenodd" d="M22.5 0H23.5C35.9264 0 46 10.0736 46 22.5C46 34.9264 35.9264 45 23.5 45H22.5C10.0736 45 0 34.9264 0 22.5C0 10.0736 10.0736 0 22.5 0ZM29.75 23V31.0636L24.2061 28.3716L23.5 28.0288L22.7962 28.3708L17.25 31.061V14H25.0625V12.5H17.25C16.8356 12.5 16.4382 12.658 16.1451 12.9393C15.8521 13.2206 15.6875 13.6022 15.6875 14V33.5L23.5 29.7097L31.3125 33.5V23H29.75ZM31.3125 12.5H29.75V15.5H26.625V17H29.75V20H31.3125V17H34.4375V15.5H31.3125V12.5Z" fill="white"/>
</g>
<defs>
<clipPath id="clip0_402_2">
<rect width="46" height="45" fill="white"/>
</clipPath>
</defs>
</svg>
