<svg width="10" height="14" viewBox="0 0 10 14" fill="none" xmlns="http://www.w3.org/2000/svg">
<path d="M9.7552 5.50723L5.58853 1.13223C5.42707 0.95996 5.21353 0.875195 4.99999 0.875195C4.78645 0.875195 4.57343 0.960644 4.41093 1.13154L0.244263 5.50654C-0.0812581 5.84834 -0.0812581 6.40205 0.244263 6.74385C0.569784 7.08564 1.09713 7.08564 1.42265 6.74385L4.16666 3.86113V12.2502C4.16666 12.7339 4.53984 13.1006 4.97655 13.1006C5.41327 13.1006 5.83332 12.7339 5.83332 12.2502V3.86113L8.57812 6.74316C8.90364 7.08496 9.43098 7.08496 9.7565 6.74316C10.082 6.40137 10.0807 5.84902 9.7552 5.50723Z" fill="black"/>
</svg>
