<svg width="24" height="24" viewBox="0 0 24 24" fill="none" xmlns="http://www.w3.org/2000/svg">
<path fill-rule="evenodd" clip-rule="evenodd" d="M12 12.4709C8.75812 10.7087 5.56302 10.2032 3.99665 10.0582C3.44672 10.0073 3 10.4476 3 10.9999V15.2644V19.4802C3 20.0512 3.47707 20.5213 4.0456 20.5734C5.48995 20.7057 8.33745 21.2003 12 22.9999C15.6625 21.2003 18.5101 20.7057 19.9544 20.5734C20.5229 20.5213 21 20.0512 21 19.4802V15.2644V10.9999C21 10.4476 20.5533 10.0073 20.0034 10.0582C18.437 10.2032 15.2419 10.7087 12 12.4709ZM12 21.8899C8.42665 20.2027 5.6282 19.7142 4.13686 19.5776C4.09776 19.574 4.05573 19.5542 4.02595 19.5236C4.0124 19.5097 4.00563 19.4978 4.00267 19.4909C4.00012 19.4849 4 19.4821 4 19.4802V15.2644V11.0631C5.52296 11.2127 8.50746 11.7107 11.5224 13.3495L12 13.6091L12.4776 13.3495C15.4925 11.7107 18.477 11.2127 20 11.0631V15.2644V19.4802C20 19.4821 19.9999 19.4849 19.9973 19.4909C19.9944 19.4978 19.9876 19.5097 19.9741 19.5236C19.9443 19.5542 19.9022 19.574 19.8631 19.5776C18.3718 19.7142 15.5733 20.2027 12 21.8899Z" fill="white"/>
<path d="M8.61926 9C8.48031 8.48144 8.46252 7.93786 8.56725 7.41132C8.67199 6.88478 8.89645 6.38939 9.22326 5.96347C9.55008 5.53755 9.9705 5.19252 10.452 4.95508C10.9335 4.71763 11.4631 4.59413 12 4.59413C12.5369 4.59413 13.0665 4.71763 13.548 4.95508C14.0295 5.19252 14.4499 5.53755 14.7767 5.96347C15.1036 6.38939 15.328 6.88478 15.4327 7.41132C15.5375 7.93786 15.5197 8.48144 15.3807 9" stroke="white" stroke-linecap="round"/>
<path d="M12 21.5V13.5" stroke="white" stroke-width="2" stroke-linecap="square"/>
<path d="M14 15L19 13.5" stroke="white" stroke-linecap="round"/>
</svg>
