<svg width="158" height="155" viewBox="0 0 158 155" fill="none" xmlns="http://www.w3.org/2000/svg">
    <defs>
        <linearGradient id="paint0_linear_1669_13429" x1="9.68" y1="135.667" x2="79.4642" y2="-49.5649"
                        gradientUnits="userSpaceOnUse">
            <stop stop-color="#FF9D4A"/>
            <stop offset="1" stop-color="#FF0000"/>
        </linearGradient>
        <linearGradient id="paint1_linear_1669_13429" x1="167.7" y1="8.63636" x2="50.598" y2="188.486"
                        gradientUnits="userSpaceOnUse">
            <stop stop-color="#3470EE"/>
            <stop offset="0.853946" stop-color="#6618C2"/>
        </linearGradient>
        <clipPath id="clip0_1669_13429">
            <rect width="75.25" height="86" fill="white" transform="translate(25 35)"/>
        </clipPath>
    </defs>
    <path d="M0 56.553C0 25.3196 25.3196 0 56.553 0H121V121H0V56.553Z" fill="url(#paint0_linear_1669_13429)"/>
    <path d="M158 98.447C158 129.68 132.68 155 101.447 155H61V35H158V98.447Z" fill="url(#paint1_linear_1669_13429)"/>
    <g clip-path="url(#clip0_1669_13429)">
        <path d="M54.5625 110.25C53.1012 110.25 51.875 111.476 51.875 112.938V121H57.25V112.938C57.25 111.476 56.0406 110.25 54.5625 110.25ZM70.6875 110.25C69.2178 110.25 68 111.468 68 112.938C68 114.407 69.2178 115.625 70.6875 115.625C72.1572 115.625 73.375 114.407 73.375 112.938C73.375 111.468 72.1656 110.25 70.6875 110.25ZM52.5469 63.8906L53.9251 68.026C54.1291 68.6383 54.9959 68.6383 55.1999 68.026L56.5781 63.8906L60.7135 62.5128C61.3259 62.308 61.3259 61.442 60.7135 61.2372L56.5781 59.8594L55.2008 55.7273C54.9967 55.1146 54.13 55.1146 53.9259 55.7273L52.5469 59.8594L48.4148 61.2367C47.8024 61.4415 47.8024 62.3075 48.4148 62.5123L52.5469 63.8906ZM81.4543 87.9773C76.0625 91.8742 69.5285 94.125 62.625 94.125C55.7215 94.125 49.1825 91.8692 43.7957 87.979C32.8189 92.143 25 102.742 25 115.171C25 118.396 27.6069 121 30.8218 121H46.5V110.25C46.5 107.269 48.8936 104.875 51.875 104.875H73.375C76.3564 104.875 78.75 107.269 78.75 110.25V121H94.4282C97.6465 121 100.25 118.396 100.25 115.171C100.25 102.742 92.4395 92.143 81.4543 87.9773ZM35.75 72.625H38.0176C42.1832 82.1152 51.6063 88.75 62.625 88.75C73.6437 88.75 83.0836 82.1152 87.2324 72.625H89.5C90.9697 72.625 92.1875 71.4072 92.1875 69.9375V53.8125C92.1875 52.3512 90.9781 51.125 89.5 51.125H87.2324C83.0836 41.6348 73.6437 35 62.625 35C51.6063 35 42.1832 41.6348 38.0176 51.125H35.75C34.2803 51.125 33.0625 52.3512 33.0625 53.8125V69.9375C33.0625 71.4156 34.2803 72.625 35.75 72.625ZM42.4688 57.8438C42.4688 54.1316 46.0801 51.125 50.5312 51.125H74.7188C79.1699 51.125 82.7812 54.1283 82.7812 57.8438V61.875C82.7812 70.7773 75.5586 78 66.6562 78H58.5938C49.6914 78 42.4688 70.7773 42.4688 61.875V57.8438Z"
              fill="white"/>
    </g>
</svg>
