<svg width="42" height="48" viewBox="0 0 42 48" fill="none" xmlns="http://www.w3.org/2000/svg">
<g clip-path="url(#clip0_5740_69177)">
<path d="M16.5 42C15.6844 42 15 42.6844 15 43.5V48H18V43.5C18 42.6844 17.325 42 16.5 42ZM25.5 42C24.6797 42 24 42.6797 24 43.5C24 44.3203 24.6797 45 25.5 45C26.3203 45 27 44.3203 27 43.5C27 42.6797 26.325 42 25.5 42ZM15.375 16.125L16.1442 18.4331C16.2581 18.7748 16.7419 18.7748 16.8558 18.4331L17.625 16.125L19.9331 15.356C20.2749 15.2417 20.2749 14.7583 19.9331 14.644L17.625 13.875L16.8563 11.5688C16.7423 11.2268 16.2586 11.2268 16.1447 11.5688L15.375 13.875L13.0687 14.6437C12.7269 14.758 12.7269 15.2414 13.0687 15.3557L15.375 16.125ZM31.5094 29.5687C28.5 31.7437 24.8531 33 21 33C17.1469 33 13.4972 31.7409 10.4906 29.5697C4.36406 31.8938 0 37.8094 0 44.7469C0 46.5469 1.455 48 3.24937 48H12V42C12 40.3359 13.3359 39 15 39H27C28.6641 39 30 40.3359 30 42V48H38.7506C40.5469 48 42 46.5469 42 44.7469C42 37.8094 37.6406 31.8937 31.5094 29.5687ZM6 21H7.26562C9.59062 26.2969 14.85 30 21 30C27.15 30 32.4188 26.2969 34.7344 21H36C36.8203 21 37.5 20.3203 37.5 19.5V10.5C37.5 9.68437 36.825 9 36 9H34.7344C32.4188 3.70312 27.15 0 21 0C14.85 0 9.59062 3.70312 7.26562 9H6C5.17969 9 4.5 9.68437 4.5 10.5V19.5C4.5 20.325 5.17969 21 6 21ZM9.75 12.75C9.75 10.6781 11.7656 9 14.25 9H27.75C30.2344 9 32.25 10.6762 32.25 12.75V15C32.25 19.9688 28.2188 24 23.25 24H18.75C13.7812 24 9.75 19.9688 9.75 15V12.75Z" fill="#AEAEAE"/>
</g>
<defs>
<clipPath id="clip0_5740_69177">
<rect width="42" height="48" fill="white"/>
</clipPath>
</defs>
</svg>
