<svg width="90" height="90" viewBox="0 0 90 90" fill="none" xmlns="http://www.w3.org/2000/svg">
<defs>
<linearGradient id="paint0_linear_5740_62784" x1="35.5548" y1="74.999" x2="71.8988" y2="37.1519" gradientUnits="userSpaceOnUse">
<stop stop-color="#A6D65E"/>
<stop offset="1" stop-color="#4AB272"/>
</linearGradient>
<linearGradient id="paint1_linear_5740_62784" x1="39.9407" y1="80.6816" x2="-12.194" y2="39.7624" gradientUnits="userSpaceOnUse">
<stop stop-color="#FC9FFF"/>
<stop offset="1" stop-color="#FF3C6D"/>
</linearGradient>
<linearGradient id="paint2_linear_5740_62784" x1="53.4766" y1="70.6816" x2="106.382" y2="27.4753" gradientUnits="userSpaceOnUse">
<stop stop-color="#0AE8FF"/>
<stop offset="1" stop-color="#0043EF"/>
</linearGradient>
<linearGradient id="paint3_linear_5740_62784" x1="45.0032" y1="63.7505" x2="32.0801" y2="86.3659" gradientUnits="userSpaceOnUse">
<stop stop-color="#FF0D48"/>
<stop offset="1" stop-color="#FF79DB"/>
</linearGradient>
</defs>
<path d="M50.2384 62.174C49.6107 64.2801 47.5824 65.624 45.0048 65.624C42.4271 65.624 40.3988 64.2801 39.7711 62.174C37.753 55.403 35.6298 43.4496 35.6298 33.749C35.6298 24.5627 36.8759 17.8166 38.7704 13.4418C40.6913 9.006 43.016 7.49902 45.0048 7.49902C46.9935 7.49902 49.3183 9.006 51.2391 13.4418C53.1336 17.8166 54.3798 24.5627 54.3798 33.749C54.3798 43.4496 52.2565 55.403 50.2384 62.174Z" stroke="url(#paint0_linear_5740_62784)" stroke-width="3.75"/>
<path d="M33.4617 65.1909C33.8262 65.4144 34.2742 65.5561 34.793 65.6053C32.7696 59.9697 28.1282 45.7667 28.1282 33.7498C28.1282 23.052 31.7898 14.2249 34.0788 9.74337C24.6707 11.7207 15.0032 21.3828 15.0032 33.7498C15.0032 40.348 17.746 47.0815 21.5141 52.8051C25.2851 58.5334 29.9376 63.0294 33.4617 65.1909Z" stroke="url(#paint1_linear_5740_62784)" stroke-width="3.75"/>
<path d="M56.543 65.1909C56.1786 65.4144 55.7305 65.5561 55.2118 65.6053C57.2352 59.9697 61.8766 45.7667 61.8766 33.7498C61.8766 23.052 58.215 14.2249 55.926 9.74337C65.334 11.7207 75.0016 21.3828 75.0016 33.7498C75.0016 40.348 72.2587 47.0815 68.4907 52.8051C64.7196 58.5334 60.0672 63.0294 56.543 65.1909Z" stroke="url(#paint2_linear_5740_62784)" stroke-width="3.75"/>
<path d="M33.7532 73.1255L39.3782 73.1255C39.3782 75.1966 41.0571 76.8755 43.1282 76.8755H46.8782C48.9492 76.8755 50.6282 75.1966 50.6282 73.1255L56.2532 73.1255V82.5005C56.2532 83.536 55.4137 84.3755 54.3782 84.3755H35.6282C34.5926 84.3755 33.7532 83.536 33.7532 82.5005V73.1255ZM50.2532 73.1255L50.2538 73.1255C50.2536 73.1255 50.2534 73.1255 50.2532 73.1255Z" stroke="url(#paint3_linear_5740_62784)" stroke-width="3.75"/>
</svg>
