<svg width="26" height="34" viewBox="0 0 26 34" fill="none" xmlns="http://www.w3.org/2000/svg">
<g clip-path="url(#clip0_5148_34218)">
<path d="M22.8427 34C24.5863 34 25.9998 32.3814 25.9998 30.3847C25.9998 28.3881 24.5863 26.7695 22.8427 26.7695C21.099 26.7695 19.6855 28.3881 19.6855 30.3847C19.6855 32.3814 21.099 34 22.8427 34Z" fill="white"/>
<path d="M21.5799 9.61858C21.1844 10.3586 20.6922 11.2305 20.0831 12.2428C19.1972 13.6506 18.2222 14.9691 17.1711 16.1876C15.0855 18.5503 13.1411 20.0495 13.1411 20.0495V20.0346C10.7528 21.8933 8.34779 22.4079 7.20193 21.1001C5.72364 19.4137 6.90479 15.3306 9.83722 11.9812C11.2969 10.3161 12.9145 9.14435 14.3538 8.59568C14.5562 8.54039 14.7085 8.33199 14.7085 8.08317C14.7085 7.79183 14.5024 7.55578 14.2479 7.55578C14.1792 7.55578 14.1142 7.57279 14.0566 7.60256C11.5514 8.83812 8.89936 10.903 6.48322 13.6634C3.20722 17.4019 1.05107 21.6317 0.300786 25.2724H0.295215C-0.315785 28.2284 0.00178628 30.7973 1.40393 32.3965C4.53136 35.9671 11.8708 33.3748 17.7969 26.6101C17.9381 26.4484 18.0829 26.2783 18.2278 26.1018C19.4071 24.6983 20.4322 23.2309 21.2846 21.7614C21.3942 21.5871 21.5038 21.4084 21.6152 21.2298C25.1122 14.9266 26.4475 7.51112 25.6211 0.357256C25.5672 -0.106342 24.9989 -0.116975 24.9005 0.33599C24.1688 3.66198 23.0396 6.78383 21.5799 9.6207V9.61858Z" fill="white"/>
</g>
<defs>
<clipPath id="clip0_5148_34218">
<rect width="26" height="34" fill="white"/>
</clipPath>
</defs>
</svg>
