<svg width="119" height="36" viewBox="0 0 119 36" fill="none" xmlns="http://www.w3.org/2000/svg">
<circle cx="27.684" cy="32.1156" r="3.80896" fill="white"/>
<path d="M26.1597 10.2364C25.6828 11.0166 25.0895 11.9349 24.3535 13.0014C23.284 14.4848 22.1087 15.8747 20.8397 17.1581C18.3237 19.6472 15.9778 21.227 15.9778 21.227L15.9808 21.2114C13.097 23.1686 10.1944 23.7117 8.81273 22.3341C7.03016 20.5568 8.45406 16.2555 11.9931 12.7269C13.7537 10.9716 15.706 9.73813 17.4431 9.16052L17.4427 9.1595C17.688 9.10168 17.8706 8.88195 17.8706 8.61971C17.8706 8.31338 17.6215 8.06506 17.3143 8.06506C17.2315 8.06506 17.153 8.08306 17.0824 8.11536C14.06 9.41757 10.8607 11.5932 7.94491 14.5004C3.99551 18.4381 1.39218 22.8943 0.488571 26.7287L0.482614 26.7291C-0.25471 29.8433 0.127816 32.5487 1.8194 34.2353C5.59187 37.9966 14.4464 35.2665 21.5966 28.1375C21.7675 27.9671 21.9411 27.7882 22.117 27.6014C23.5407 26.122 24.7764 24.5778 25.8058 23.0275C25.9382 22.843 26.0709 22.6563 26.2037 22.4674C30.4235 15.827 32.0347 8.01265 31.0374 0.47575C30.9728 -0.0126039 30.2872 -0.0236281 30.1669 0.454085C29.285 3.958 27.9222 7.24803 26.1597 10.2364Z" fill="#FCFBF9"/>
<path d="M100.262 13.9503C100.175 13.6887 100.218 13.4271 100.393 13.1654C100.59 12.9038 100.83 12.773 101.115 12.773H105.968C106.274 12.773 106.482 12.8493 106.591 13.0019C106.723 13.1327 106.81 13.2526 106.854 13.3616L108.559 16.7629L111.74 13.3616C111.828 13.2526 111.959 13.1327 112.134 13.0019C112.309 12.8493 112.56 12.773 112.888 12.773H118.102C118.452 12.773 118.66 12.9256 118.725 13.2308C118.791 13.5143 118.725 13.765 118.529 13.983L111.871 21.2761L115.286 28.2748C115.418 28.5582 115.407 28.8308 115.254 29.0924C115.122 29.3322 114.871 29.4521 114.499 29.4521H109.514C109.252 29.4521 109.055 29.3867 108.924 29.2559C108.815 29.1251 108.727 29.0052 108.662 28.8962C106.051 23.6437 102.909 19.4108 100.262 13.9503Z" fill="white"/>
<path d="M49.453 29.7753C48.2723 29.7753 47.2666 29.59 46.4358 29.2194C45.6269 28.8269 45.0257 28.3145 44.6321 27.6823L44.4354 28.598C44.3916 28.8378 44.2714 29.0449 44.0746 29.2194C43.8779 29.372 43.6592 29.4483 43.4187 29.4483H38.7947C38.5542 29.4483 38.3684 29.372 38.2372 29.2194C38.106 29.0449 38.0623 28.8378 38.106 28.598L42.6973 7.0786C42.741 6.83877 42.8612 6.64254 43.058 6.48992C43.2548 6.3155 43.4734 6.22829 43.7139 6.22829H48.7643C48.9829 6.22829 49.1578 6.3155 49.289 6.48992C49.442 6.64254 49.4967 6.83877 49.453 7.0786L47.9772 13.8484C48.6331 13.3251 49.3108 12.9108 50.0105 12.6056C50.7319 12.2786 51.5955 12.115 52.6012 12.115C53.6288 12.115 54.5361 12.2786 55.3232 12.6056C56.1103 12.9327 56.7552 13.4232 57.2581 14.0773C57.7828 14.7096 58.1326 15.4945 58.3075 16.432C58.5043 17.3695 58.4934 18.4488 58.2747 19.6697C58.2091 20.1276 58.1326 20.5418 58.0452 20.9125C57.9577 21.2831 57.8593 21.7083 57.75 22.1879C57.3127 23.8886 56.7006 25.3057 55.9135 26.4395C55.1264 27.5732 54.1863 28.4127 53.0932 28.9577C52.0219 29.5028 50.8085 29.7753 49.453 29.7753ZM47.9772 24.6735C48.5456 24.6735 49.0157 24.5645 49.3874 24.3464C49.759 24.1066 50.0542 23.7796 50.2728 23.3653C50.5133 22.951 50.721 22.4932 50.8959 21.9917C51.0052 21.6647 51.0927 21.3158 51.1583 20.9452C51.2457 20.5745 51.3113 20.2257 51.355 19.8987C51.4206 19.3754 51.4206 18.9175 51.355 18.5251C51.3113 18.1108 51.1583 17.7947 50.8959 17.5766C50.6336 17.3368 50.2182 17.2169 49.6497 17.2169C49.125 17.2169 48.6659 17.3259 48.2723 17.5439C47.8788 17.762 47.5618 18.0454 47.3213 18.3943C47.0808 18.7431 46.895 19.1465 46.7638 19.6043C46.6326 20.0622 46.5233 20.4655 46.4358 20.8144C46.3703 21.1632 46.3047 21.5775 46.2391 22.0571C46.1735 22.5368 46.1735 22.9728 46.2391 23.3653C46.3047 23.7577 46.4686 24.0739 46.731 24.3137C47.0152 24.5536 47.4306 24.6735 47.9772 24.6735Z" fill="white"/>
<path d="M67.7399 29.4523C67.4994 29.4523 67.3136 29.376 67.1824 29.2233C67.0512 29.0489 67.0075 28.8418 67.0512 28.602L70.0804 14.6375C70.1241 14.3976 70.2444 14.2014 70.4411 14.0488C70.6598 13.8744 70.8893 13.7871 71.1298 13.7871H75.9834C76.2239 13.7871 76.4098 13.8744 76.5409 14.0488C76.6721 14.2014 76.7158 14.3976 76.6721 14.6375L73.6102 28.602C73.5664 28.8418 73.4462 29.0489 73.2494 29.2233C73.0527 29.376 72.834 29.4523 72.5935 29.4523H67.7399ZM71.5425 12.4461C71.302 12.4461 71.1162 12.3698 70.985 12.2172C70.8538 12.0427 70.8101 11.8356 70.8538 11.5958L71.856 7.10787C71.8997 6.86804 72.02 6.66091 72.2167 6.48649C72.4354 6.31206 72.6649 6.22485 72.9054 6.22485H77.6606C77.8793 6.22485 78.0542 6.31206 78.1854 6.48649C78.3165 6.66091 78.3603 6.86804 78.3165 7.10787L77.2816 11.5958C77.2597 11.8356 77.1395 12.0427 76.9209 12.2172C76.7241 12.3698 76.5055 12.4461 76.265 12.4461H71.5425Z" fill="white"/>
<path d="M76.9181 29.4523C76.6776 29.4523 76.4918 29.376 76.3606 29.2233C76.2294 29.0489 76.1857 28.8418 76.2294 28.602L79.4761 13.2964C79.5198 13.0566 79.64 12.8603 79.8368 12.7077C80.0554 12.5333 80.285 12.4461 80.5255 12.4461H85.2807C85.5212 12.4461 85.6961 12.5333 85.8054 12.7077C85.9366 12.8603 85.9804 13.0566 85.9366 13.2964L85.7071 14.4737C86.4067 13.8197 87.2266 13.2637 88.1667 12.8058C89.1068 12.348 90.1671 12.119 91.3477 12.119C92.6595 12.119 93.7527 12.3916 94.6272 12.9366C95.5236 13.4817 96.1467 14.2993 96.4965 15.3895C96.8682 16.4796 96.8791 17.8532 96.5293 19.5102L94.5616 28.602C94.5179 28.8418 94.3977 29.0489 94.2009 29.2233C94.0041 29.376 93.7855 29.4523 93.545 29.4523H88.3634C88.1229 29.4523 87.9371 29.376 87.8059 29.2233C87.6747 29.0489 87.631 28.8418 87.6747 28.602L89.544 19.7391C89.7189 18.9106 89.6752 18.2892 89.4129 17.875C89.1724 17.4389 88.6695 17.2209 87.9043 17.2209C87.161 17.2209 86.5269 17.4389 86.0022 17.875C85.4994 18.311 85.1605 18.9324 84.9856 19.7391L83.0835 28.602C83.0398 28.8418 82.9195 29.0489 82.7227 29.2233C82.526 29.376 82.3073 29.4523 82.0669 29.4523H76.9181Z" fill="white"/>
<path d="M97.3482 29.4523C97.1077 29.4523 96.9219 29.3759 96.7907 29.2233C96.6595 29.0489 96.6158 28.8418 96.6595 28.6019L97.7089 23.729C97.7527 23.511 97.8729 23.3148 98.0697 23.1403C98.2883 22.9659 98.5069 22.8787 98.7256 22.8787H103.612C103.852 22.8787 104.027 22.9659 104.137 23.1403C104.268 23.3148 104.312 23.511 104.268 23.729L103.251 28.6019C103.208 28.8418 103.087 29.0489 102.891 29.2233C102.694 29.3759 102.475 29.4523 102.235 29.4523H97.3482Z" fill="white"/>
<path d="M58.9166 29.4534C58.6802 29.4534 58.4976 29.3784 58.3686 29.2284C58.2397 29.0569 58.1967 28.8533 58.2397 28.6176L62.9368 7.06687C62.9798 6.83113 63.098 6.63825 63.2914 6.48823C63.4848 6.31678 63.6997 6.23106 63.9361 6.23106H68.707C68.9434 6.23106 69.126 6.31678 69.255 6.48823C69.4054 6.63825 69.4591 6.83113 69.4162 7.06687L64.6868 28.6176C64.6438 28.8533 64.5256 29.0569 64.3322 29.2284C64.1388 29.3784 63.9239 29.4534 63.6875 29.4534H58.9166Z" fill="white"/>
</svg>
