<svg width="71" height="70" viewBox="0 0 71 70" fill="none" xmlns="http://www.w3.org/2000/svg">
<path d="M14.9561 20.3032L34.4442 25.8712C34.4971 25.8864 34.5532 25.8864 34.6061 25.8712L53.6822 20.4209" stroke="white" stroke-width="2.94724" stroke-linecap="round"/>
<path d="M13.8936 43.0316V22.2232C13.8936 20.9073 14.7659 19.7509 16.0311 19.3894L34.4433 14.1288C34.4962 14.1137 34.5523 14.1137 34.6052 14.1288L53.0173 19.3894C54.2826 19.7509 55.1549 20.9073 55.1549 22.2232V43.0316C55.1549 44.2493 54.4071 45.3405 53.2606 45.7508C51.6038 46.3438 49.0413 47.22 46.3132 47.9995C43.0032 48.9452 39.4493 49.7517 36.9735 50.3355C35.3665 50.7145 33.6819 50.7145 32.0749 50.3355C29.5991 49.7517 26.0453 48.9452 22.7353 47.9995C20.0071 47.22 17.4447 46.3438 15.7879 45.7508C14.6414 45.3405 13.8936 44.2493 13.8936 43.0316Z" stroke="white" stroke-width="2.94724" stroke-linecap="round"/>
<path d="M34.5225 49.4717V27.3674" stroke="white" stroke-width="2.94724" stroke-linecap="round"/>
<path d="M25.6821 17.0531L44.8392 22.5265L45.576 22.7371" stroke="white" stroke-width="2.94724" stroke-linecap="round"/>
</svg>
