<svg width="24" height="20" viewBox="0 0 24 20" fill="none" xmlns="http://www.w3.org/2000/svg">
<path fill-rule="evenodd" clip-rule="evenodd" d="M1.30912 8.63634H1.33713L1.19796 7.01848C0.938494 4.00218 3.18456 1.35004 6.20771 1.18899C8.14627 1.08571 10.2724 1.00024 11.9997 1.00024C13.7271 1.00024 15.8534 1.08572 17.7921 1.189C20.8153 1.35005 23.0613 4.0022 22.8019 7.0185L22.6627 8.63634H22.6909L22.602 9.63634L22.0601 15.7333C21.92 17.309 20.6735 18.5587 19.0958 18.6741C17.0247 18.8257 14.1708 19 12 19C9.82926 19 6.97535 18.8257 4.90429 18.6741C3.32659 18.5587 2.08003 17.309 1.93996 15.7333L1.39801 9.63634L1.30912 8.63634ZM7.63641 8.63634H2.34082L2.19428 6.93278C1.98189 4.46369 3.81768 2.31773 6.2609 2.18757C8.19402 2.08459 10.2992 2.00024 11.9997 2.00024C13.7003 2.00024 15.8057 2.08459 17.7389 2.18758C20.1821 2.31774 22.0179 4.46371 21.8055 6.9328L21.659 8.63634H16.3637V9.63634H21.5981L21.064 15.6448C20.9665 16.7417 20.1023 17.5978 19.0228 17.6768C16.9544 17.8282 14.1316 18 12 18C9.86847 18 7.0457 17.8282 4.97726 17.6768C3.89775 17.5978 3.03354 16.7417 2.93604 15.6448L2.40195 9.63634H7.63641V8.63634ZM13.6067 9.75656H10.3928V11.3635C10.3928 12.251 11.1122 12.9704 11.9997 12.9704C12.8872 12.9704 13.6067 12.251 13.6067 11.3635V9.75656ZM11.9997 14.0908C10.4935 14.0908 9.27244 12.8697 9.27244 11.3635V8.63623H14.727V11.3635C14.727 12.8697 13.5059 14.0908 11.9997 14.0908Z" fill="white" stroke="white"/>
</svg>
