<svg width="35" height="35" viewBox="0 0 35 35" fill="none" xmlns="http://www.w3.org/2000/svg">
<path d="M33.9644 16.4943C33.4867 8.20091 26.8422 1.55748 18.5475 1.03643C13.8573 0.732332 9.42767 2.33914 6.0403 5.59572C2.78321 8.76538 0.915974 13.2378 1.00291 17.8405C1.17649 26.5247 8.38556 33.7326 17.0278 33.9931C20.0244 34.08 22.9773 33.3419 25.5831 31.8654L32.8788 33.9495C32.9657 33.9932 33.0524 33.9932 33.1393 33.9932C33.3565 33.9932 33.617 33.9062 33.7473 33.7327C33.9645 33.5155 34.0514 33.1681 33.9645 32.8643L31.7061 25.8735C33.3998 23.051 34.1816 19.7942 33.9644 16.4943ZM30.1427 25.0917C29.9255 25.4391 29.8821 25.8298 30.0124 26.2206L31.8364 31.8221L26.0605 30.172C25.6261 30.0417 25.192 30.0851 24.8012 30.3455C22.4563 31.6483 19.8072 32.3431 17.1144 32.2561C9.38427 32.039 2.91352 25.5694 2.78324 17.7969C2.6963 13.672 4.34664 9.67717 7.34324 6.81138C10.0793 4.16269 13.6839 2.73003 17.5053 2.73003C17.8095 2.73003 18.1566 2.73003 18.4608 2.77334C25.8871 3.25099 31.7931 9.19959 32.2274 16.6247C32.4013 19.6208 31.7061 22.5299 30.1427 25.0917Z" fill="white" stroke="white" stroke-width="0.5"/>
</svg>
