<svg width="24" height="19" viewBox="0 0 24 19" fill="none" xmlns="http://www.w3.org/2000/svg">
<g clip-path="url(#clip0_2083_13395)">
<path d="M6.419 4.88007C8.50454 2.79341 11.8852 2.79341 13.9708 4.88007C15.9561 6.86542 16.0637 10.0531 14.212 12.1683L14.0153 12.3947C13.6887 12.7658 13.1284 12.8029 12.7573 12.4801C12.3862 12.1572 12.3491 11.5932 12.6719 11.2221L12.8723 10.9957C14.1043 9.58553 14.0338 7.46288 12.709 6.13807C11.3211 4.71678 9.06861 4.71678 7.64732 6.13807L3.47363 10.3426C2.08425 11.7342 2.08425 13.9867 3.47363 15.3746C4.79732 16.666 6.92368 16.7699 8.33013 15.5379L8.56021 15.3375C8.92759 15.0146 9.49165 15.0517 9.8145 15.4228C10.1411 15.7902 10.1002 16.3543 9.73286 16.6771L9.50278 16.8775C7.38755 18.7256 4.19986 18.6217 2.21413 16.6326C0.129143 14.5508 0.129143 11.1367 2.21413 9.08456L6.419 4.88007ZM17.3292 14.1203C15.2436 16.2058 11.8629 16.2058 9.77739 14.1203C7.75864 12.1016 7.68443 8.94725 9.53247 6.83202L9.70689 6.63163C10.0297 6.26053 10.5938 6.22342 10.9649 6.54628C11.336 6.86913 11.3731 7.43319 11.0502 7.80428L10.8758 8.00467C9.64009 9.41483 9.71431 11.5375 11.0354 12.8623C12.427 14.2502 14.6795 14.2502 16.0711 12.8623L20.2756 8.6578C21.6635 7.2662 21.6635 5.01366 20.2756 3.62577C18.9508 2.30171 16.8245 2.23083 15.418 3.46434L15.1879 3.66288C14.8206 3.98573 14.2565 3.94862 13.9336 3.57901C13.6071 3.20903 13.6479 2.64608 14.0153 2.32249L14.2454 2.12358C16.3606 0.272863 19.5483 0.37907 21.5336 2.36628C23.6192 4.4496 23.6192 7.83026 21.5336 9.91581L17.3292 14.1203Z" fill="white"/>
</g>
<defs>
<clipPath id="clip0_2083_13395">
<rect width="23.75" height="19" fill="white"/>
</clipPath>
</defs>
</svg>
