<svg width="38" height="38" viewBox="0 0 38 38" fill="none" xmlns="http://www.w3.org/2000/svg">
<path fill-rule="evenodd" clip-rule="evenodd" d="M14.2521 18.9991H5.6492C5.17343 18.9991 4.80512 19.4158 4.86352 19.888L5.903 28.2924C6.15526 30.332 7.7964 31.9186 9.84645 32.063C12.4687 32.2476 16.0789 32.4575 18.945 32.4575C21.8261 32.4575 25.4954 32.2454 28.1525 32.0601C30.2046 31.9169 31.8493 30.3296 32.102 28.2881L33.142 19.8881C33.2004 19.4159 32.8321 18.9991 32.3563 18.9991H23.7521V20.5825H31.4606L30.5307 28.0936C30.3692 29.3978 29.3244 30.3911 28.0423 30.4806C25.3909 30.6655 21.7677 30.8741 18.945 30.8741C16.1375 30.8741 12.5735 30.6678 9.95768 30.4835C8.67811 30.3934 7.63557 29.4015 7.47436 28.0981L6.54482 20.5825H14.2521V18.9991Z" fill="white"/>
<path d="M16.6237 19.7919H21.3737V22.8067C21.3737 24.1184 20.3104 25.1817 18.9987 25.1817C17.687 25.1817 16.6237 24.1184 16.6237 22.8067V19.7919Z" stroke="white" stroke-width="1.58333"/>
<path d="M7.12305 11.8577H30.873" stroke="white" stroke-width="1.33283" stroke-linecap="round"/>
<path d="M7.66903 19.188L6.43038 12.3767C6.36908 12.0396 6.41877 11.6917 6.572 11.3853L6.86174 10.8059C7.76485 8.99975 9.61086 7.85889 11.6302 7.85889H26.3658C28.3852 7.85889 30.2313 8.99986 31.1343 10.8061L31.4239 11.3854C31.5771 11.6918 31.6268 12.0396 31.5655 12.3766L30.3272 19.188" stroke="white" stroke-width="1.33283" stroke-linecap="round"/>
</svg>
