<svg width="16" height="16" viewBox="0 0 16 16" fill="none" xmlns="http://www.w3.org/2000/svg">
<path d="M9.24862 2.7068C9.47784 3.68541 9.50903 4.69999 9.34035 5.69083C9.17167 6.68168 8.80653 7.62878 8.26642 8.47643C7.7263 9.32407 7.02212 10.0551 6.19529 10.6266C5.36847 11.1981 4.4357 11.5984 3.45187 11.8041C3.96915 12.3392 4.58865 12.765 5.27362 13.0561C5.95859 13.3472 6.69506 13.4977 7.43932 13.4987C7.50857 13.4987 7.57842 13.5013 7.64822 13.4987C8.94389 13.4529 10.1826 12.9547 11.1491 12.0906C12.1157 11.2265 12.7491 10.0512 12.9393 8.76875C13.1294 7.48629 12.8644 6.17773 12.1902 5.07034C11.516 3.96295 10.4752 3.12669 9.24862 2.7068ZM8.50987 1.5C8.53914 1.50005 8.56835 1.50266 8.59717 1.5078C10.1893 1.79059 11.6205 2.65251 12.615 3.92753C13.6096 5.20254 14.0972 6.80048 13.9839 8.41355C13.8706 10.0266 13.1645 11.5407 12.0015 12.6642C10.8385 13.7877 9.30089 14.4412 7.68487 14.4986C7.60282 14.5016 7.52077 14.4986 7.43942 14.4986C6.39001 14.4992 5.3559 14.2471 4.42451 13.7636C3.49312 13.2801 2.69184 12.5794 2.08842 11.7208C2.0395 11.6469 2.01094 11.5613 2.00563 11.4728C2.00031 11.3842 2.01842 11.2958 2.05813 11.2165C2.09784 11.1372 2.15775 11.0698 2.23182 11.021C2.3059 10.9722 2.39152 10.9438 2.48007 10.9387C3.47897 10.851 4.44435 10.5349 5.30159 10.0146C6.15882 9.49439 6.88494 8.784 7.42383 7.93837C7.96272 7.09274 8.29994 6.13452 8.40943 5.13777C8.51892 4.14102 8.39774 3.13245 8.05527 2.19C8.02613 2.1146 8.01543 2.03332 8.02406 1.95295C8.03269 1.87257 8.06039 1.79542 8.10486 1.72792C8.14934 1.66042 8.20929 1.60452 8.27974 1.56487C8.35019 1.52523 8.42909 1.50299 8.50987 1.5Z" fill="#0360F3"/>
</svg>
