<svg width="41" height="31" viewBox="0 0 41 31" fill="none" xmlns="http://www.w3.org/2000/svg">
<path d="M5.96191 6.00781L20.7172 10.2236C20.7573 10.2351 20.7997 10.2351 20.8398 10.2236L35.2831 6.09694" stroke="white" stroke-width="2.23148" stroke-linecap="round"/>
<path d="M5.15723 23.2164V7.46146C5.15723 6.46515 5.81769 5.58954 6.77567 5.31584L20.7163 1.3328C20.7564 1.32136 20.7988 1.32136 20.8389 1.3328L34.7795 5.31584C35.7375 5.58954 36.398 6.46515 36.398 7.46146V23.2164C36.398 24.1384 35.8318 24.9645 34.9637 25.2752C33.7093 25.7242 31.7691 26.3876 29.7035 26.9778C27.1974 27.6938 24.5066 28.3044 22.6321 28.7465C21.4153 29.0334 20.1399 29.0334 18.9231 28.7465C17.0486 28.3044 14.3578 27.6938 11.8517 26.9778C9.78609 26.3876 7.84592 25.7242 6.5915 25.2752C5.72342 24.9645 5.15723 24.1384 5.15723 23.2164Z" stroke="white" stroke-width="2.23148" stroke-linecap="round"/>
<path d="M20.7773 28.0925V11.3564" stroke="white" stroke-width="2.23148" stroke-linecap="round"/>
<path d="M14.083 3.54702L28.5876 7.69119L29.1455 7.85059" stroke="white" stroke-width="2.23148" stroke-linecap="round"/>
</svg>
