<svg width="20" height="14" viewBox="0 0 20 14" fill="none" xmlns="http://www.w3.org/2000/svg">
<path fill-rule="evenodd" clip-rule="evenodd" d="M13.2199 7.86354C13.2936 7.5881 13.3329 7.29861 13.3329 6.99994C13.3329 5.15899 11.8405 3.66661 9.99953 3.66661C9.70086 3.66661 9.41137 3.70589 9.13594 3.77957L11.1611 5.80471C11.1725 5.81578 11.1837 5.82701 11.1948 5.83839L13.2199 7.86354ZM6.77905 6.13673C6.70544 6.41205 6.6662 6.70141 6.6662 6.99994C6.6662 8.84089 8.15858 10.3333 9.99953 10.3333C10.2981 10.3333 10.5874 10.294 10.8627 10.2204L6.77905 6.13673Z" fill="white"/>
<path fill-rule="evenodd" clip-rule="evenodd" d="M16.2713 10.9152C18.1544 9.59436 19.1655 7.91806 19.1655 7.00011C19.1655 5.33344 15.8322 1.16677 9.99884 1.16677C8.88362 1.16677 7.85978 1.31907 6.93313 1.57706L7.89929 2.54322C8.55028 2.4093 9.25071 2.33344 9.99884 2.33344C12.6263 2.33344 14.6654 3.26908 16.0409 4.36946C16.7318 4.92223 17.2433 5.50726 17.5735 6.01847C17.9264 6.56491 17.9988 6.91046 17.9988 7.00011C17.9988 7.08975 17.9264 7.43531 17.5735 7.98175C17.2433 8.49295 16.7318 9.07799 16.0409 9.63076C15.8506 9.783 15.6476 9.93209 15.4321 10.076L16.2713 10.9152ZM4.56601 3.92398L3.72677 3.08474C1.84346 4.40564 0.832174 6.0821 0.832174 7.00011C0.832174 8.66678 4.16551 12.8334 9.99884 12.8334C11.1143 12.8334 12.1383 12.6811 13.065 12.423L12.0989 11.4569C11.4478 11.5909 10.7472 11.6668 9.99884 11.6668C7.37143 11.6668 5.33229 10.7311 3.95682 9.63076C3.26586 9.07799 2.75435 8.49295 2.4242 7.98175C2.07129 7.43531 1.99884 7.08975 1.99884 7.00011C1.99884 6.91046 2.07129 6.56491 2.4242 6.01847C2.75435 5.50726 3.26586 4.92223 3.95682 4.36946C4.14723 4.21713 4.35036 4.06795 4.56601 3.92398Z" fill="white"/>
<path d="M4.10679 1.10713L15.8919 12.8922" stroke="white" stroke-width="1.33333" stroke-linecap="round"/>
</svg>
