<svg width="20" height="19" viewBox="0 0 20 19" fill="none" xmlns="http://www.w3.org/2000/svg">
<path d="M10.9376 1.55019L10.9376 1.55021L10.9412 1.55205C12.2041 2.1996 13.5279 2.71403 15.1446 2.71403C16.4256 2.71403 17.3282 2.42458 18.0218 2.14711C18.1766 2.08521 18.3079 2.02967 18.4273 1.97917C18.5901 1.91031 18.7308 1.85084 18.8783 1.79744C19.115 1.71174 19.2793 1.67855 19.419 1.68524C19.4192 1.68525 19.4195 1.68527 19.4197 1.68528C19.4228 1.68774 19.4308 1.69486 19.4414 1.71075C19.4719 1.75639 19.5001 1.83982 19.5001 1.93898V8.00023V13.1919C19.5001 13.3882 19.4738 13.486 19.4384 13.5395C19.3147 13.7267 19.0912 13.8997 18.7552 14.0468C18.4224 14.1925 18.0157 14.2967 17.5773 14.3682C16.7051 14.5103 15.7818 14.5113 15.2254 14.5003C13.7308 14.4133 12.2434 13.7903 10.8295 13.0758C9.82016 12.5512 8.86017 12.0741 7.37964 12.0699C6.76685 12.0681 6.11576 12.1075 5.47873 12.226C5.24825 12.2689 4.98985 12.2087 4.79183 12.0717C4.59701 11.9368 4.50013 11.7589 4.50013 11.5795V6.87047V1.17269C4.50013 0.955503 4.62666 0.808207 4.76739 0.770369C5.56424 0.55613 6.45545 0.502014 7.31938 0.500261C8.58743 0.607582 9.81882 0.965069 10.9376 1.55019ZM0.500003 1.49993C0.500002 0.947684 0.947685 0.5 1.49993 0.5C2.05217 0.5 2.49985 0.947677 2.49986 1.49992L2.50002 17.5C2.50002 18.0523 2.05231 18.5 1.50002 18.5C0.947742 18.5 0.500031 18.0523 0.50003 17.5L0.500003 1.49993Z" stroke="#E75D84"/>
</svg>
