<svg width="30" height="30" viewBox="0 0 30 30" fill="none" xmlns="http://www.w3.org/2000/svg">
<path fill-rule="evenodd" clip-rule="evenodd" d="M1.60855 13.099H1.64305L1.47166 11.1066C1.15214 7.39214 3.91812 4.12607 7.64107 3.92774C10.0284 3.80057 12.6467 3.69531 14.7738 3.69531C16.9011 3.69531 19.5196 3.80057 21.907 3.92776C25.63 4.12609 28.396 7.39216 28.0764 11.1067L27.9051 13.099H27.9398L27.8304 14.3305L27.163 21.8388C26.9905 23.7793 25.4554 25.3182 23.5125 25.4604C20.962 25.647 17.4474 25.8616 14.7742 25.8616C12.1009 25.8616 8.58641 25.647 6.03593 25.4604C4.09303 25.3182 2.55791 23.7793 2.38543 21.8388L1.71802 14.3305L1.60855 13.099ZM9.40049 13.099H2.87907L2.69861 11.0011C2.43706 7.96048 4.6978 5.31777 7.70658 5.15748C10.0872 5.03066 12.6797 4.92679 14.7738 4.92679C16.868 4.92679 19.4608 5.03067 21.8415 5.15749C24.8503 5.31778 27.1111 7.9605 26.8495 11.0011L26.669 13.099H20.1479V14.3305H26.594L25.9363 21.7298C25.8162 23.0806 24.752 24.1349 23.4226 24.2322C20.8753 24.4185 17.3992 24.6301 14.7742 24.6301C12.1492 24.6301 8.67303 24.4185 6.1258 24.2322C4.79641 24.1349 3.73214 23.0806 3.61207 21.7298L2.95435 14.3305H9.40049V13.099ZM16.7527 14.4785H12.7949V16.4575C12.7949 17.5504 13.6809 18.4364 14.7738 18.4364C15.8667 18.4364 16.7527 17.5504 16.7527 16.4575V14.4785ZM14.7738 19.816C12.9189 19.816 11.4152 18.3124 11.4152 16.4575V13.0989H18.1324V16.4575C18.1324 18.3124 16.6287 19.816 14.7738 19.816Z" fill="white"/>
</svg>
