<svg width="30" height="30" viewBox="0 0 30 30" fill="none" xmlns="http://www.w3.org/2000/svg">
<path d="M26.1466 6.60962C26.2249 6.57755 26.3043 6.54502 26.385 6.51209V19.9653C25.4741 20.4027 24.7917 20.6785 24.0989 20.8488C23.393 21.0225 22.6273 21.0983 21.5503 21.0778C19.7019 20.97 17.8992 20.4859 16.26 19.6583C14.8848 18.9444 13.3791 18.501 11.8292 18.3521L11.7776 18.3472L11.7258 18.347C10.755 18.3443 9.66727 18.421 8.615 18.6928V5.17804C9.52545 4.93744 10.5685 4.86815 11.6288 4.86509C13.142 4.99595 14.6106 5.42388 15.9448 6.12166L15.9447 6.12169L15.9528 6.12579C17.6269 6.98426 19.4654 7.49585 21.3518 7.62946L21.3783 7.63134L21.4048 7.63195C22.4934 7.65713 23.2957 7.57089 24.0936 7.35686C24.7551 7.17943 25.4006 6.9151 26.1466 6.60962Z" stroke="white" stroke-width="2.23"/>
<rect x="3.75015" y="4.90384" width="1.73077" height="22.5" rx="0.865385" stroke="white" stroke-width="1.73077"/>
</svg>
