<svg width="18" height="18" viewBox="0 0 18 18" fill="none" xmlns="http://www.w3.org/2000/svg">
<path fill-rule="evenodd" clip-rule="evenodd" d="M8.4375 1.125H9.5625V2.8125H8.4375V1.125ZM1.125 8.4375H2.8125V9.5625H1.125V8.4375ZM9.5625 16.875V15.1875H8.4375V16.875H9.5625ZM15.1875 8.4375H16.875V9.5625H15.1875V8.4375ZM14.9344 3.87199L14.1389 3.0765L12.9457 4.26974L13.7412 5.06524L14.9344 3.87199ZM3.86945 3.07103L5.0627 4.26427L4.2672 5.05977L3.07396 3.86653L3.86945 3.07103ZM5.0612 13.7343L4.26571 12.9388L3.07247 14.132L3.86796 14.9275L5.0612 13.7343ZM14.9231 14.1356L13.7306 12.9375L12.9375 13.7362L14.13 14.9288L14.9231 14.1356ZM11.5001 5.25839C10.76 4.76392 9.89002 4.5 9 4.5C7.80653 4.5 6.66193 4.97411 5.81802 5.81802C4.9741 6.66193 4.5 7.80653 4.5 9C4.5 9.89002 4.76392 10.76 5.25839 11.5001C5.75285 12.2401 6.45566 12.8169 7.27792 13.1575C8.10019 13.4981 9.00499 13.5872 9.87791 13.4135C10.7508 13.2399 11.5526 12.8113 12.182 12.182C12.8113 11.5526 13.2399 10.7508 13.4135 9.87791C13.5872 9.00499 13.4981 8.10019 13.1575 7.27792C12.8169 6.45566 12.2401 5.75285 11.5001 5.25839ZM11.3865 11.3865C10.7536 12.0194 9.89511 12.375 9 12.375V5.625C9.89511 5.625 10.7536 5.98058 11.3865 6.61351C12.0194 7.24645 12.375 8.10489 12.375 9C12.375 9.89511 12.0194 10.7536 11.3865 11.3865Z" fill="white"/>
</svg>
