<svg width="71" height="119" viewBox="0 0 71 119" fill="none" xmlns="http://www.w3.org/2000/svg">
<rect width="71" height="119" rx="8" fill="#EFEFEF"/>
<path d="M48 88H71V111C71 115.418 67.4183 119 63 119H48V88Z" fill="url(#paint0_linear_5357_141057)"/>
<path d="M24 88H47V119H24V88Z" fill="url(#paint1_linear_5357_141057)"/>
<path d="M24 56H47V87H24V56Z" fill="url(#paint2_linear_5357_141057)"/>
<path d="M48 56H71V87H48V56Z" fill="url(#paint3_linear_5357_141057)"/>
<path d="M0 56H23V87H0V56Z" fill="url(#paint4_linear_5357_141057)"/>
<path d="M0 88H23V119H8C3.58172 119 0 115.418 0 111V88Z" fill="url(#paint5_linear_5357_141057)"/>
<circle cx="22.3251" cy="25.9309" r="1.56533" fill="black"/>
<path d="M21.6992 16.9394C21.5032 17.26 21.2594 17.6374 20.9569 18.0757C20.5174 18.6853 20.0344 19.2565 19.5129 19.7839C18.4789 20.8068 17.5149 21.4561 17.5149 21.4561L17.5161 21.4497C16.331 22.254 15.1381 22.4772 14.5703 21.911C13.8377 21.1806 14.4229 19.413 15.8773 17.9629C16.6008 17.2415 17.4032 16.7346 18.117 16.4972L18.1169 16.4968C18.2177 16.4731 18.2927 16.3828 18.2927 16.275C18.2927 16.1491 18.1904 16.047 18.0641 16.047C18.0301 16.047 17.9978 16.0544 17.9688 16.0677C16.7267 16.6029 15.412 17.497 14.2137 18.6917C12.5906 20.31 11.5208 22.1413 11.1494 23.7171L11.147 23.7172C10.844 24.997 11.0012 26.1088 11.6963 26.8019C13.2467 28.3477 16.8855 27.2257 19.8239 24.296C19.8942 24.226 19.9655 24.1525 20.0379 24.0757C20.6229 23.4677 21.1307 22.8331 21.5538 22.196C21.6082 22.1202 21.6627 22.0435 21.7173 21.9658C23.2016 19.6301 23.9006 16.9409 23.8141 14.2722C23.7982 13.7799 23.1216 13.7462 22.9601 14.2116C22.6266 15.1726 22.2026 16.0859 21.6992 16.9394Z" fill="black"/>
<path d="M52.1519 18.4656C52.116 18.3581 52.134 18.2506 52.2058 18.1431C52.2867 18.0355 52.3855 17.9818 52.5023 17.9818H54.497C54.6228 17.9818 54.7081 18.0131 54.753 18.0759C54.807 18.1296 54.8429 18.1789 54.8609 18.2237L55.5617 19.6215L56.869 18.2237C56.9049 18.1789 56.9588 18.1296 57.0307 18.0759C57.1026 18.0131 57.2059 17.9818 57.3407 17.9818H59.4836C59.6273 17.9818 59.7127 18.0445 59.7396 18.1699C59.7666 18.2864 59.7396 18.3895 59.6588 18.4791L56.9229 21.4762L58.3263 24.3524C58.3802 24.4689 58.3757 24.5809 58.3129 24.6884C58.2589 24.787 58.1556 24.8363 58.0029 24.8363H55.9543C55.8465 24.8363 55.7656 24.8094 55.7117 24.7556C55.6668 24.7019 55.6309 24.6526 55.6039 24.6078C54.5311 22.4492 53.2397 20.7097 52.1519 18.4656Z" fill="black"/>
<path d="M31.2714 24.9691C30.7863 24.9691 30.373 24.8929 30.0315 24.7406C29.6991 24.5793 29.452 24.3687 29.2903 24.1089L29.2094 24.4852C29.1915 24.5838 29.142 24.6689 29.0612 24.7406C28.9803 24.8033 28.8905 24.8347 28.7916 24.8347H26.8913C26.7925 24.8347 26.7161 24.8033 26.6622 24.7406C26.6083 24.6689 26.5903 24.5838 26.6083 24.4852L28.4951 15.6416C28.5131 15.5431 28.5625 15.4624 28.6434 15.3997C28.7242 15.328 28.8141 15.2922 28.9129 15.2922H30.9884C31.0783 15.2922 31.1502 15.328 31.2041 15.3997C31.267 15.4624 31.2894 15.5431 31.2714 15.6416L30.665 18.4237C30.9345 18.2087 31.213 18.0384 31.5006 17.913C31.7971 17.7786 32.152 17.7114 32.5653 17.7114C32.9876 17.7114 33.3604 17.7786 33.6839 17.913C34.0073 18.0474 34.2724 18.249 34.479 18.5178C34.6947 18.7777 34.8384 19.1002 34.9103 19.4855C34.9912 19.8708 34.9867 20.3143 34.8968 20.8161C34.8699 21.0042 34.8384 21.1745 34.8025 21.3268C34.7666 21.4791 34.7261 21.6538 34.6812 21.851C34.5015 22.5499 34.2499 23.1323 33.9265 23.5982C33.603 24.0641 33.2167 24.4091 32.7674 24.6331C32.3272 24.8571 31.8285 24.9691 31.2714 24.9691ZM30.665 22.8724C30.8986 22.8724 31.0918 22.8276 31.2445 22.738C31.3972 22.6395 31.5185 22.505 31.6084 22.3348C31.7072 22.1646 31.7926 21.9764 31.8644 21.7703C31.9094 21.6359 31.9453 21.4926 31.9723 21.3402C32.0082 21.1879 32.0352 21.0446 32.0531 20.9102C32.0801 20.6951 32.0801 20.507 32.0531 20.3457C32.0352 20.1754 31.9723 20.0455 31.8644 19.9559C31.7566 19.8573 31.5859 19.8081 31.3523 19.8081C31.1367 19.8081 30.948 19.8529 30.7863 19.9425C30.6245 20.0321 30.4943 20.1485 30.3954 20.2919C30.2966 20.4353 30.2202 20.601 30.1663 20.7892C30.1124 20.9774 30.0675 21.1431 30.0315 21.2865C30.0046 21.4298 29.9776 21.6001 29.9507 21.7972C29.9237 21.9943 29.9237 22.1735 29.9507 22.3348C29.9776 22.4961 30.045 22.626 30.1528 22.7246C30.2696 22.8231 30.4403 22.8724 30.665 22.8724Z" fill="black"/>
<path d="M38.7867 24.8363C38.6878 24.8363 38.6115 24.805 38.5575 24.7422C38.5036 24.6706 38.4857 24.5854 38.5036 24.4869L39.7485 18.748C39.7665 18.6495 39.8159 18.5688 39.8967 18.5061C39.9866 18.4344 40.0809 18.3986 40.1798 18.3986H42.1744C42.2732 18.3986 42.3496 18.4344 42.4035 18.5061C42.4574 18.5688 42.4754 18.6495 42.4574 18.748L41.1991 24.4869C41.1811 24.5854 41.1317 24.6706 41.0508 24.7422C40.97 24.805 40.8801 24.8363 40.7813 24.8363H38.7867ZM40.3494 17.8474C40.2505 17.8474 40.1742 17.8161 40.1203 17.7534C40.0664 17.6817 40.0484 17.5966 40.0664 17.498L40.4782 15.6537C40.4962 15.5551 40.5456 15.47 40.6264 15.3983C40.7163 15.3266 40.8106 15.2908 40.9095 15.2908H42.8637C42.9535 15.2908 43.0254 15.3266 43.0793 15.3983C43.1332 15.47 43.1512 15.5551 43.1332 15.6537L42.7079 17.498C42.6989 17.5966 42.6495 17.6817 42.5597 17.7534C42.4788 17.8161 42.3889 17.8474 42.2901 17.8474H40.3494Z" fill="black"/>
<path d="M42.5585 24.8363C42.4597 24.8363 42.3833 24.805 42.3294 24.7422C42.2755 24.6706 42.2575 24.5854 42.2755 24.4869L43.6097 18.1969C43.6277 18.0983 43.6771 18.0177 43.758 17.955C43.8478 17.8833 43.9422 17.8474 44.041 17.8474H45.9952C46.0941 17.8474 46.1659 17.8833 46.2109 17.955C46.2648 18.0177 46.2827 18.0983 46.2648 18.1969L46.1704 18.6807C46.4579 18.4119 46.7949 18.1835 47.1812 17.9953C47.5676 17.8071 48.0033 17.713 48.4885 17.713C49.0276 17.713 49.4769 17.825 49.8363 18.0491C50.2046 18.2731 50.4607 18.6091 50.6045 19.0571C50.7572 19.5051 50.7617 20.0695 50.6179 20.7505L49.8093 24.4869C49.7913 24.5854 49.7419 24.6706 49.6611 24.7422C49.5802 24.805 49.4903 24.8363 49.3915 24.8363H47.2621C47.1633 24.8363 47.0869 24.805 47.033 24.7422C46.9791 24.6706 46.9611 24.5854 46.9791 24.4869L47.7473 20.8446C47.8192 20.5041 47.8012 20.2488 47.6934 20.0785C47.5945 19.8993 47.3879 19.8097 47.0734 19.8097C46.7679 19.8097 46.5074 19.8993 46.2917 20.0785C46.0851 20.2577 45.9458 20.5131 45.8739 20.8446L45.0923 24.4869C45.0743 24.5854 45.0249 24.6706 44.944 24.7422C44.8631 24.805 44.7733 24.8363 44.6745 24.8363H42.5585Z" fill="black"/>
<path d="M50.9545 24.8363C50.8556 24.8363 50.7793 24.8049 50.7254 24.7422C50.6715 24.6705 50.6535 24.5854 50.6715 24.4869L51.1027 22.4843C51.1207 22.3947 51.1701 22.314 51.251 22.2424C51.3408 22.1707 51.4307 22.1348 51.5205 22.1348H53.5286C53.6275 22.1348 53.6994 22.1707 53.7443 22.2424C53.7982 22.314 53.8162 22.3947 53.7982 22.4843L53.3804 24.4869C53.3624 24.5854 53.313 24.6705 53.2321 24.7422C53.1513 24.8049 53.0614 24.8363 52.9626 24.8363H50.9545Z" fill="black"/>
<path d="M35.1606 24.8368C35.0635 24.8368 34.9884 24.806 34.9354 24.7443C34.8824 24.6738 34.8648 24.5902 34.8824 24.4933L36.8128 15.6368C36.8304 15.5399 36.879 15.4607 36.9585 15.399C37.038 15.3286 37.1263 15.2933 37.2234 15.2933H39.1841C39.2812 15.2933 39.3563 15.3286 39.4093 15.399C39.4711 15.4607 39.4932 15.5399 39.4755 15.6368L37.5319 24.4933C37.5143 24.5902 37.4657 24.6738 37.3862 24.7443C37.3067 24.806 37.2184 24.8368 37.1213 24.8368H35.1606Z" fill="black"/>
<rect x="12" y="36" width="47" height="4" fill="#D9D9D9"/>
<rect x="22" y="43" width="27" height="3" fill="#D9D9D9"/>
<defs>
<linearGradient id="paint0_linear_5357_141057" x1="49.84" y1="122.758" x2="63.8833" y2="92.9197" gradientUnits="userSpaceOnUse">
<stop stop-color="#A6D65E"/>
<stop offset="1" stop-color="#4AB272"/>
</linearGradient>
<linearGradient id="paint1_linear_5357_141057" x1="25.84" y1="122.758" x2="47.7167" y2="79.6745" gradientUnits="userSpaceOnUse">
<stop stop-color="#FF9D4A"/>
<stop offset="1" stop-color="#FF0000"/>
</linearGradient>
<linearGradient id="paint2_linear_5357_141057" x1="35.5" y1="56" x2="35.5" y2="87" gradientUnits="userSpaceOnUse">
<stop stop-color="#EAA0FF"/>
<stop offset="1" stop-color="#F855CD"/>
</linearGradient>
<linearGradient id="paint3_linear_5357_141057" x1="48.92" y1="88.6439" x2="74.7269" y2="50.1531" gradientUnits="userSpaceOnUse">
<stop stop-color="#0AE8FF"/>
<stop offset="1" stop-color="#0043EF"/>
</linearGradient>
<linearGradient id="paint4_linear_5357_141057" x1="-2.3" y1="93.8106" x2="28.9205" y2="49.7998" gradientUnits="userSpaceOnUse">
<stop stop-color="#3470EE"/>
<stop offset="0.853946" stop-color="#6618C2"/>
</linearGradient>
<linearGradient id="paint5_linear_5357_141057" x1="11.5" y1="72.5" x2="-18.1685" y2="94.5121" gradientUnits="userSpaceOnUse">
<stop stop-color="#FF0D48"/>
<stop offset="1" stop-color="#FF79DB"/>
</linearGradient>
</defs>
</svg>
