<svg width="42" height="42" viewBox="0 0 42 42" fill="none" xmlns="http://www.w3.org/2000/svg">
<path d="M10 13.4444C10 13.1565 10.0216 12.8171 10.0572 12.4538C10.2859 10.1156 12.1998 8.3525 14.5159 7.95903L14.8613 7.90035C18.3668 7.30484 21.9502 7.33577 25.4449 7.9917L26.0963 8.11395C27.9795 8.46743 29.4252 9.98659 29.6849 11.8851V11.8851C30.5576 18.2655 30.5565 24.7662 29.6901 31.1475V31.1475C29.4287 33.0726 27.9524 34.6189 26.0395 34.958L25.3535 35.0796C21.9177 35.6886 18.4027 35.7012 14.9626 35.1169L14.5836 35.0525C12.2266 34.6521 10.2738 32.8581 10.0506 30.4778C10.019 30.1403 10 29.8254 10 29.5556" stroke="white" stroke-width="2.23148" stroke-linecap="round"/>
<path d="M4.45081 20.2857C4.00361 20.6519 4.00361 21.3481 4.45081 21.7143C6.17911 23.1294 8.10956 24.3021 10.1624 25.1797L10.8773 25.4853C11.0251 25.5485 11.194 25.4618 11.2288 25.3049L11.5402 23.9036C11.6576 23.3756 12.1258 23 12.6667 23L16 23C16.5523 23 17 22.5523 17 22L17 21L17 20.2315C17 19.5514 16.4486 19 15.7685 19L15.6667 19L12.6667 19C12.1258 19 11.6576 18.6244 11.5402 18.0964L11.2288 16.6951C11.194 16.5382 11.0251 16.4515 10.8773 16.5147L10.1624 16.8203C8.10955 17.6979 6.17911 18.8706 4.45081 20.2857Z" stroke="white" stroke-width="2"/>
</svg>
