<svg width="23" height="26" viewBox="0 0 23 26" fill="none" xmlns="http://www.w3.org/2000/svg">
<path d="M2.28604 10.4377L2.28604 10.4377C2.20621 10.3608 2.11792 10.2728 2.02337 10.1763C1.34674 9.48565 1.22241 8.37608 1.75302 7.46012C2.2807 6.54923 3.29774 6.10426 4.2319 6.34028C4.37057 6.37532 4.49799 6.40917 4.61033 6.44112C5.13116 6.58923 5.69753 6.48748 6.1357 6.15438C6.72185 5.70879 7.363 5.33977 8.04348 5.05641C8.55258 4.84441 8.92472 4.40421 9.05674 3.87863C9.08337 3.7726 9.11523 3.65411 9.15127 3.52617L8.07733 3.22365L9.15127 3.52617C9.41397 2.59357 10.315 1.93068 11.3764 1.93068C12.4374 1.93068 13.3384 2.59316 13.6015 3.52555C13.6302 3.62698 13.6562 3.72271 13.6792 3.81116L14.7592 3.53094L13.6792 3.81116C13.8264 4.37851 14.2287 4.85114 14.7735 5.08331C15.4084 5.3539 16.0083 5.69937 16.5605 6.11224C17.0343 6.46658 17.6445 6.57832 18.2096 6.42206L17.9123 5.34667L18.2096 6.42206C18.3047 6.39577 18.4089 6.3684 18.52 6.34034C19.4538 6.10448 20.4706 6.54925 20.9984 7.4598C21.5292 8.3757 21.4052 9.48529 20.7288 10.176C20.6883 10.2173 20.6489 10.2571 20.6107 10.2953C20.1359 10.77 19.9026 11.4354 19.9722 12.0996C20.0349 12.6981 20.0349 13.3016 19.9722 13.9002C19.9026 14.5643 20.1359 15.2297 20.6108 15.7044L21.3996 14.9152L20.6108 15.7044C20.6489 15.7425 20.6882 15.7822 20.7286 15.8234C21.4052 16.514 21.5295 17.6236 20.9989 18.5395C20.4713 19.4504 19.4542 19.8954 18.5201 19.6594C18.3954 19.6279 18.2796 19.5973 18.1756 19.5681C17.6318 19.4157 17.0437 19.5231 16.588 19.8668C16.0192 20.2956 15.3991 20.6527 14.742 20.9297C14.2153 21.1517 13.8277 21.6078 13.688 22.155C13.6632 22.2521 13.6344 22.3588 13.6023 22.4728C13.3395 23.4058 12.4381 24.069 11.3762 24.069C10.3148 24.069 9.41347 23.4062 9.15024 22.4735L8.07644 22.7765L9.15024 22.4735C9.11793 22.359 9.08893 22.2519 9.064 22.1544L7.98305 22.4309L9.064 22.1544C8.92409 21.6074 8.5365 21.1516 8.01005 20.9297C7.3529 20.6527 6.73283 20.2957 6.16402 19.8668C5.70827 19.5231 5.12012 19.4157 4.57633 19.5681C4.47246 19.5972 4.35682 19.6278 4.23226 19.6592C3.29824 19.8951 2.28132 19.4503 1.75345 18.5396C1.22262 17.6238 1.34647 16.5142 2.02275 15.8231L1.22532 15.0427L2.02276 15.8231C2.11769 15.7261 2.20633 15.6377 2.28646 15.5604L1.51182 14.7574L2.28646 15.5604C2.67646 15.1841 2.87262 14.6422 2.80268 14.0953C2.70958 13.3674 2.70959 12.6307 2.80269 11.9029C2.87265 11.3559 2.67632 10.8138 2.28604 10.4377ZM11.376 18.2822C12.7797 18.2822 14.1268 17.7267 15.1206 16.7365C16.1146 15.7462 16.6738 14.4021 16.6738 12.9998C16.6738 11.5975 16.1146 10.2535 15.1206 9.26314C14.1268 8.27296 12.7797 7.71741 11.376 7.71741C9.97224 7.71741 8.62516 8.27296 7.63131 9.26314C6.63733 10.2535 6.07816 11.5975 6.07816 12.9998C6.07816 14.4021 6.63733 15.7462 7.63131 16.7365C8.62516 17.7267 9.97224 18.2822 11.376 18.2822Z" stroke="white" stroke-width="2.23148"/>
</svg>
