<svg width="33" height="33" viewBox="0 0 33 33" fill="none" xmlns="http://www.w3.org/2000/svg">
<rect x="1.03125" y="1.03125" width="30.9375" height="30.9375" rx="15.4688" stroke="white" stroke-width="2.0625"/>
<path fill-rule="evenodd" clip-rule="evenodd" d="M9.85547 17.5879C10.7098 17.5879 11.4023 16.8953 11.4023 16.041C11.4023 15.1867 10.7098 14.4941 9.85547 14.4941C9.00115 14.4941 8.30859 15.1867 8.30859 16.041C8.30859 16.8953 9.00115 17.5879 9.85547 17.5879ZM16.043 17.5879C16.8973 17.5879 17.5898 16.8953 17.5898 16.041C17.5898 15.1867 16.8973 14.4941 16.043 14.4941C15.1887 14.4941 14.4961 15.1867 14.4961 16.041C14.4961 16.8953 15.1887 17.5879 16.043 17.5879ZM23.7773 16.041C23.7773 16.8953 23.0848 17.5879 22.2305 17.5879C21.3762 17.5879 20.6836 16.8953 20.6836 16.041C20.6836 15.1867 21.3762 14.4941 22.2305 14.4941C23.0848 14.4941 23.7773 15.1867 23.7773 16.041Z" fill="white"/>
</svg>
