<svg width="24" height="24" viewBox="0 0 24 24" fill="none" xmlns="http://www.w3.org/2000/svg">
<path d="M12 2.5C14.201 2.5 15.7917 2.50154 17.0498 2.70872C18.2797 2.91127 19.1523 3.30525 19.9235 4.07645C20.6948 4.84766 21.0887 5.72027 21.2913 6.95024C21.4985 8.20826 21.5 9.79904 21.5 12C21.5 14.201 21.4985 15.7917 21.2913 17.0498C21.0887 18.2797 20.6948 19.1523 19.9235 19.9235C19.1523 20.6948 18.2797 21.0887 17.0498 21.2913C15.7917 21.4985 14.201 21.5 12 21.5C9.79904 21.5 8.20825 21.4985 6.95024 21.2913C5.72027 21.0887 4.84766 20.6948 4.07645 19.9235C3.30525 19.1523 2.91127 18.2797 2.70872 17.0498C2.50154 15.7917 2.5 14.201 2.5 12C2.5 9.79904 2.50154 8.20826 2.70872 6.95024C2.91127 5.72027 3.30525 4.84766 4.07645 4.07645C4.84766 3.30525 5.72027 2.91127 6.95024 2.70872C8.20826 2.50154 9.79904 2.5 12 2.5Z" stroke="white"/>
<path d="M12 8.5C11.1716 8.5 10.5 7.82843 10.5 7C10.5 6.17157 11.1716 5.5 12 5.5C12.8284 5.5 13.5 6.17157 13.5 7C13.5 7.82843 12.8284 8.5 12 8.5ZM12 13.5C11.1716 13.5 10.5 12.8284 10.5 12C10.5 11.1716 11.1716 10.5 12 10.5C12.8284 10.5 13.5 11.1716 13.5 12C13.5 12.8284 12.8284 13.5 12 13.5ZM12 18.5C11.1716 18.5 10.5 17.8284 10.5 17C10.5 16.1716 11.1716 15.5 12 15.5C12.8284 15.5 13.5 16.1716 13.5 17C13.5 17.8284 12.8284 18.5 12 18.5Z" fill="white" stroke="white"/>
</svg>
