<svg width="23" height="25" viewBox="0 0 23 25" fill="none" xmlns="http://www.w3.org/2000/svg">
<defs>
<linearGradient id="paint0_linear_7168_39771" x1="6.25613" y1="3.41699" x2="6.25613" y2="19.4756" gradientUnits="userSpaceOnUse">
<stop stop-color="#7DB74D"/>
<stop offset="1" stop-color="#00A780"/>
</linearGradient>
<linearGradient id="paint1_linear_7168_39771" x1="16.0995" y1="1.02539" x2="16.0995" y2="9.92452" gradientUnits="userSpaceOnUse">
<stop stop-color="#7DB74D"/>
<stop offset="1" stop-color="#00A780"/>
</linearGradient>
<linearGradient id="paint2_linear_7168_39771" x1="10.7496" y1="15.1377" x2="10.7496" y2="23.918" gradientUnits="userSpaceOnUse">
<stop stop-color="#7DB74D"/>
<stop offset="1" stop-color="#00A780"/>
</linearGradient>
</defs>
<path d="M9.45426 11.7145C5.48303 11.7145 2.13492 8.59809 1.63413 4.48699H3.05801C7.36724 4.48699 10.9428 8.15645 10.9428 12.7845V18.4056H10.5243V12.7845V11.7145H9.45426Z" stroke="url(#paint0_linear_7168_39771)" stroke-width="2.14"/>
<path d="M14.314 8.71793C13.8894 7.47718 13.2714 6.33152 12.4951 5.319C13.119 4.32501 13.8515 3.57898 14.6946 3.05793C15.6994 2.43701 16.9261 2.09539 18.4418 2.09539H19.8764C19.5191 5.57143 17.4093 8.03232 14.314 8.71793Z" stroke="url(#paint1_linear_7168_39771)" stroke-width="2.14"/>
<path d="M7.33282 15.834C7.33282 15.4741 7.00242 15.2038 6.65345 15.2918C3.67861 16.0416 1.63818 17.5828 1.63818 19.3623C1.63818 21.8783 5.71751 23.918 10.7496 23.918C15.7817 23.918 19.861 21.8783 19.861 19.3623C19.861 17.5828 17.8206 16.0416 14.8458 15.2918C14.4968 15.2038 14.1664 15.4741 14.1664 15.834V16.4318C14.1664 16.6972 14.3502 16.926 14.6065 16.9947C15.2944 17.1792 15.9079 17.4087 16.4283 17.6689C17.8956 18.4025 18.1526 19.0999 18.1526 19.3623C18.1526 19.6246 17.8956 20.322 16.4283 21.0556C15.0633 21.7381 13.0579 22.2096 10.7496 22.2096C8.44127 22.2096 6.43592 21.7381 5.07087 21.0556C3.60364 20.322 3.34658 19.6246 3.34658 19.3623C3.34658 19.0999 3.60364 18.4025 5.07087 17.6689C5.59131 17.4087 6.20482 17.1792 6.8927 16.9947C7.14904 16.926 7.33282 16.6972 7.33282 16.4318V15.834Z" fill="url(#paint2_linear_7168_39771)"/>

</svg>
