<svg width="24" height="23" viewBox="0 0 24 23" fill="none" xmlns="http://www.w3.org/2000/svg">
<defs>
<linearGradient id="paint0_linear_1_3" x1="12.1053" y1="20.9275" x2="12.1053" y2="2.57235" gradientUnits="userSpaceOnUse">
<stop stop-color="#00EFF7"/>
<stop offset="1" stop-color="#00B7FF"/>
</linearGradient>
</defs>
<path d="M12.1639 1.57235C9.78421 1.57235 7.88518 3.53097 7.88518 5.90963C7.88517 8.28828 9.78421 10.2469 12.1639 10.2469C14.5436 10.2469 16.4426 8.28828 16.4426 5.90963C16.4426 3.53097 14.5436 1.57235 12.1639 1.57235ZM23.0001 17.5901C23.0001 15.2115 21.1011 13.2528 18.7214 13.2528C17.6331 13.2528 16.6399 13.6658 15.8874 14.3405C15.0003 15.1359 14.4426 16.2994 14.4426 17.5901C14.4426 19.9688 16.3417 21.9274 18.7214 21.9274C21.1011 21.9274 23.0001 19.9688 23.0001 17.5901ZM5.4893 13.2529C3.10961 13.2529 1.21057 15.2116 1.21057 17.5902C1.21057 19.9689 3.10961 21.9275 5.4893 21.9275C7.86899 21.9275 9.76803 19.9689 9.76803 17.5902C9.76803 15.2116 7.86899 13.2529 5.4893 13.2529Z" stroke="url(#paint0_linear_1_3)" stroke-width="2"/>
</svg>
