<svg width="20" height="23" viewBox="0 0 20 23" fill="none" xmlns="http://www.w3.org/2000/svg">
    <path fill-rule="evenodd" clip-rule="evenodd" d="M12.1242 10.2932L12.0444 10.2451C10.7607 9.47127 10.0265 8.26391 9.58784 7.14865C9.14934 6.0338 8.93635 4.83409 8.80433 3.83174C8.74196 3.35825 8.69451 2.90111 8.65351 2.50248C8.51731 2.57846 8.37195 2.66516 8.21768 2.76391C7.31525 3.34158 6.30438 4.20767 5.35821 5.30055C3.44346 7.5122 2 10.404 2 13.3548C2 17.5097 5.513 21 10 21C14.487 21 18 17.5097 18 13.3548C18 11.7302 17.4695 10.2153 16.5523 8.96722C16.336 9.33163 16.0463 9.71492 15.658 10.0279C15.2265 10.3756 14.6661 10.6442 13.993 10.6978C13.3381 10.7499 12.732 10.5863 12.2082 10.3337L12.1242 10.2932ZM15.0786 7.44787C15.08 7.44462 15.0814 7.44137 15.0828 7.43811C15.1585 7.25879 15.2267 7.07478 15.2906 6.8965C15.3108 6.84016 15.3306 6.78438 15.3501 6.72951C15.5976 6.03165 15.7933 5.47983 16.1538 5.75172C16.6124 6.09748 17.0389 6.48099 17.4282 6.8974C17.4371 6.8795 17.4328 6.88279 17.417 6.91588C17.4151 6.91968 17.4132 6.92378 17.4112 6.92821C17.4191 6.91495 17.4247 6.90451 17.4282 6.8974C19.0268 8.60704 20 10.8713 20 13.3548C20 18.6817 15.5228 23 10 23C4.47715 23 0 18.6817 0 13.3548C0 6.19231 6.92308 0 10 0C10.4067 0 10.5053 0.958337 10.6381 2.24975C10.8558 4.3672 11.1657 7.3801 13.0769 8.53226C14.1693 9.05906 14.7126 8.31 15.0786 7.44787Z" fill="#E75D84"/>
    <path fill-rule="evenodd" clip-rule="evenodd" d="M10 21C10.9295 21 12 20.1091 12 18.6C12 18.3586 11.9137 17.9158 11.662 17.2947C11.4215 16.7012 11.0794 16.0654 10.6981 15.4787C10.4598 15.112 10.2204 14.7863 10 14.5178C9.77965 14.7863 9.54022 15.112 9.30192 15.4787C8.92057 16.0654 8.57847 16.7012 8.33798 17.2947C8.08629 17.9158 8 18.3586 8 18.6C8 20.1091 9.07054 21 10 21ZM10.6522 13.8468C10.6783 13.8294 10.6744 13.8356 10.6434 13.853C10.6469 13.8504 10.6499 13.8484 10.6522 13.8468ZM9.35664 13.853C9.32564 13.8356 9.32168 13.8294 9.34778 13.8468C9.35012 13.8484 9.35307 13.8504 9.35664 13.853ZM10 23C12.2091 23 14 21.0301 14 18.6C14 16.1699 11 12 10 12C9 12 6 16.1699 6 18.6C6 21.0301 7.79086 23 10 23Z" fill="#E75D84"/>
</svg>
