<svg width="22" height="22" viewBox="0 0 22 22" fill="none" xmlns="http://www.w3.org/2000/svg">
<path d="M16.7214 5.60962C16.8611 5.39353 16.6072 5.13974 16.3911 5.27942L14.3193 6.61875C14.1444 6.73185 14.0443 6.93077 14.0579 7.13865C14.086 7.57064 14.4301 7.91479 14.8621 7.94291C15.07 7.95644 15.2689 7.85639 15.382 7.68141L16.7214 5.60962Z" fill="white"/>
<path d="M5.27833 16.3897C5.13862 16.6058 5.39247 16.8596 5.60859 16.7199L7.68083 15.3803C7.85582 15.2672 7.95589 15.0683 7.94236 14.8603C7.91426 14.4282 7.57004 14.084 7.13797 14.0559C6.93003 14.0424 6.73103 14.1424 6.61792 14.3175L5.27833 16.3897Z" fill="white"/>
<path d="M16.72 16.3908C16.8597 16.6069 16.6058 16.8607 16.3897 16.721L14.3174 15.3814C14.1424 15.2683 14.0424 15.0693 14.0559 14.8614C14.084 14.4293 14.4282 14.0851 14.8603 14.057C15.0682 14.0435 15.2672 14.1435 15.3803 14.3185L16.72 16.3908Z" fill="white"/>
<path d="M5.28118 5.60954C5.14175 5.39386 5.3951 5.14053 5.61078 5.27996L7.67883 6.61685C7.85346 6.72974 7.95331 6.92829 7.93982 7.13581C7.91178 7.56701 7.56825 7.91053 7.13706 7.93859C6.92953 7.9521 6.73096 7.85222 6.61805 7.67759L5.28118 5.60954Z" fill="white"/>
<path d="M13.3368 8.32753C13.5562 8.18568 13.8139 8.44341 13.6721 8.66282L12.5609 10.3817C12.4605 10.537 12.284 10.6257 12.0995 10.6138C11.7162 10.5888 11.4108 10.2834 11.3858 9.90009C11.3738 9.7156 11.4626 9.53905 11.6179 9.43869L13.3368 8.32753Z" fill="white"/>
<path d="M8.6621 13.6715C8.44268 13.8133 8.18495 13.5556 8.32679 13.3362L9.43798 11.6173C9.53833 11.462 9.71487 11.3732 9.89934 11.3852C10.2827 11.4102 10.5881 11.7155 10.613 12.0989C10.625 12.2834 10.5362 12.4599 10.381 12.5603L8.6621 13.6715Z" fill="white"/>
<path d="M13.6716 13.3366C13.8134 13.5561 13.5557 13.8138 13.3363 13.6719L11.6174 12.5608C11.4621 12.4604 11.3733 12.2839 11.3854 12.0994C11.4103 11.7161 11.7157 11.4107 12.099 11.3857C12.2835 11.3737 12.46 11.4625 12.5604 11.6178L13.6716 13.3366Z" fill="white"/>
<path d="M8.32728 8.6621C8.18544 8.44268 8.44317 8.18495 8.66259 8.32679L10.3815 9.43798C10.5367 9.53833 10.6255 9.71485 10.6135 9.89934C10.5886 10.2827 10.2832 10.5881 9.89984 10.613C9.71536 10.625 9.53882 10.5362 9.43845 10.381L8.32728 8.6621Z" fill="white"/>
<path d="M21.721 10.6307C22.0927 10.7369 22.0927 11.2635 21.721 11.3697L16.1743 12.9558C15.5102 13.1456 14.7997 12.8825 14.4194 12.3058C13.8973 11.5138 13.8973 10.4868 14.4194 9.69473C14.7996 9.11799 15.5102 8.85477 16.1744 9.0447L21.721 10.6307Z" fill="white"/>
<path d="M0.278738 11.3685C-0.0929125 11.2623 -0.0929125 10.7356 0.278738 10.6294L5.82568 9.04423C6.48925 8.85459 7.19913 9.11747 7.57916 9.69356C8.10149 10.4854 8.10149 11.5124 7.57917 12.3042C7.19915 12.8804 6.48923 13.1433 5.8256 12.9536L0.278738 11.3685Z" fill="white"/>
<path d="M11.3686 21.7214C11.2623 22.093 10.7357 22.093 10.6295 21.7214L9.04347 16.1747C8.85356 15.5106 9.11675 14.8 9.69345 14.4198C10.4855 13.8977 11.5125 13.8977 12.3045 14.4198C12.8812 14.8 13.1444 15.5106 12.9545 16.1748L11.3686 21.7214Z" fill="white"/>
<path d="M10.6305 0.278754C10.7367 -0.0929149 11.2634 -0.0929149 11.3696 0.278735L12.9547 5.82568C13.1444 6.48924 12.8815 7.19914 12.3054 7.57915C11.5136 8.10149 10.4866 8.10149 9.69474 7.57917C9.1186 7.19914 8.85568 6.48922 9.04532 5.8256L10.6305 0.278754Z" fill="white"/>
</svg>
