<svg width="22" height="22" viewBox="0 0 22 22" fill="none" xmlns="http://www.w3.org/2000/svg">
<defs>
<linearGradient id="paint0_linear_7168_33597" x1="11" y1="0.5" x2="11" y2="21.5" gradientUnits="userSpaceOnUse">
<stop stop-color="#FF9900"/>
<stop offset="1" stop-color="#F24C35"/>
</linearGradient>
</defs>
<path fill-rule="evenodd" clip-rule="evenodd" d="M9.43822 1.37716C10.1478 0.207613 11.8522 0.207613 12.5618 1.37716L14.9469 5.30843C15.2013 5.72774 15.6151 6.02697 16.0945 6.13818L20.5884 7.18078C21.9254 7.49096 22.4521 9.10416 21.5537 10.1371L18.5338 13.6094C18.2116 13.9798 18.0536 14.4639 18.0954 14.952L18.4878 19.5276C18.6045 20.8889 17.2256 21.8859 15.9608 21.3547L11.7092 19.5695C11.2558 19.379 10.7442 19.379 10.2908 19.5695L6.03925 21.3547C4.77443 21.8859 3.39552 20.8889 3.51224 19.5276L3.90458 14.952C3.94643 14.4639 3.78835 13.9798 3.46624 13.6094L0.446326 10.1371C-0.452096 9.10416 0.0746 7.49096 1.41156 7.18078L5.90555 6.13818C6.38488 6.02697 6.79873 5.72774 7.05313 5.30843L9.43822 1.37716ZM8.9099 6.42411L10.2753 4.17364C10.6053 3.62965 11.3947 3.62965 11.7247 4.17364L13.0901 6.42411C13.6469 7.34194 14.5528 7.99692 15.602 8.24034L18.1672 8.83545C18.7898 8.9799 19.0346 9.73523 18.6152 10.2175L16.8938 12.1968C16.1887 13.0074 15.8427 14.0672 15.9343 15.1355L16.1583 17.7484C16.2128 18.3835 15.5732 18.8492 14.9856 18.6024L12.5525 17.5807C11.5599 17.1639 10.4401 17.1639 9.44754 17.5807L7.01444 18.6024C6.42677 18.8492 5.7872 18.3835 5.84165 17.7484L6.0657 15.1355C6.1573 14.0672 5.81129 13.0075 5.10623 12.1968L3.3848 10.2175C2.96535 9.73523 3.21022 8.9799 3.83284 8.83545L6.39798 8.24034C7.44719 7.99692 8.35306 7.34194 8.9099 6.42411Z" fill="url(#paint0_linear_7168_33597)"/>
</svg>
