<svg width="22" height="21" viewBox="0 0 22 21" fill="none" xmlns="http://www.w3.org/2000/svg">
<path fill-rule="evenodd" clip-rule="evenodd" d="M11.7112 20.934C11.8026 20.9726 11.9008 20.9927 12 20.9931C12.1989 20.9931 12.3897 20.9141 12.5303 20.7734C12.671 20.6328 12.75 20.442 12.75 20.2431V0.743095C12.7472 0.545268 12.6663 0.356567 12.525 0.218095C12.3845 0.0784063 12.1944 0 11.9963 0C11.7981 0 11.608 0.0784063 11.4675 0.218095L5.7525 5.99309H0.75C0.551088 5.99309 0.360322 6.07211 0.21967 6.21276C0.0790176 6.35342 0 6.54418 0 6.74309V14.2431C0 14.442 0.0790176 14.6328 0.21967 14.7734C0.360322 14.9141 0.551088 14.9931 0.75 14.9931H5.7525L11.4675 20.7681C11.537 20.839 11.6198 20.8953 11.7112 20.934ZM6 13.4931H1.5V7.49309H6C6.21863 7.49453 6.42993 7.41429 6.5925 7.26809L11.25 2.56559V18.4206L6.5925 13.7181C6.42993 13.5719 6.21863 13.4917 6 13.4931ZM20.6925 7L21.75 8.0575L19.0575 10.75L21.75 13.4425L20.6925 14.5L18 11.8075L15.3075 14.5L14.25 13.4425L16.9425 10.75L14.25 8.0575L15.3075 7L18 9.6925L20.6925 7Z" fill="white"/>
</svg>
