<svg width="24" height="25" viewBox="0 0 24 25" fill="none" xmlns="http://www.w3.org/2000/svg">
<path d="M21.9774 10.86C21.6734 5.5824 17.4451 1.35476 12.1666 1.02318C9.18194 0.829666 6.36308 1.85218 4.20747 3.92455C2.13478 5.94161 0.946528 8.78766 1.00185 11.7167C1.11231 17.243 5.69991 21.8298 11.1995 21.9956C13.1064 22.0509 14.9856 21.5812 16.6438 20.6416L21.2865 21.9679C21.3419 21.9956 21.397 21.9956 21.4523 21.9956C21.5905 21.9956 21.7563 21.9403 21.8392 21.8299C21.9774 21.6917 22.0328 21.4706 21.9774 21.2773L20.5403 16.8286C21.6181 15.0325 22.1156 12.9599 21.9774 10.86ZM19.5454 16.3311C19.4072 16.5522 19.3796 16.8008 19.4625 17.0495L20.6232 20.614L16.9476 19.564C16.6712 19.4811 16.3949 19.5087 16.1463 19.6744C14.654 20.5034 12.9682 20.9456 11.2547 20.8903C6.33545 20.7521 2.2177 16.6351 2.13479 11.6889C2.07946 9.06399 3.12968 6.52184 5.03661 4.69815C6.77773 3.01262 9.07156 2.10093 11.5034 2.10093C11.697 2.10093 11.9179 2.10093 12.1114 2.12849C16.8373 2.43245 20.5957 6.21792 20.872 10.943C20.9827 12.8496 20.5403 14.7008 19.5454 16.3311Z" fill="white" stroke="white" stroke-width="0.5"/>
</svg>
