<svg width="21" height="21" viewBox="0 0 21 21" fill="none" xmlns="http://www.w3.org/2000/svg">
<path d="M12 20.9931C11.9008 20.9927 11.8026 20.9726 11.7112 20.934C11.6198 20.8953 11.537 20.839 11.4675 20.7681L5.7525 14.9931H0.75C0.551088 14.9931 0.360322 14.9141 0.21967 14.7734C0.0790176 14.6328 0 14.442 0 14.2431V6.74309C0 6.54418 0.0790176 6.35342 0.21967 6.21276C0.360322 6.07211 0.551088 5.99309 0.75 5.99309H5.7525L11.4675 0.218095C11.608 0.0784063 11.7981 0 11.9963 0C12.1944 0 12.3845 0.0784063 12.525 0.218095C12.6663 0.356567 12.7472 0.545268 12.75 0.743095V20.2431C12.75 20.442 12.671 20.6328 12.5303 20.7734C12.3897 20.9141 12.1989 20.9931 12 20.9931ZM1.5 13.4931H6C6.21863 13.4917 6.42993 13.5719 6.5925 13.7181L11.25 18.4206V2.56559L6.5925 7.26809C6.42993 7.41429 6.21863 7.49453 6 7.49309H1.5V13.4931Z" fill="white"/>
<line y1="-0.5" x2="6.57707" y2="-0.5" transform="matrix(0.658505 -0.752577 0.658505 0.752577 14.875 8.94975)" stroke="white"/>
<line x1="14.875" y1="10.4498" x2="21" y2="10.4498" stroke="white"/>
<line y1="-0.5" x2="6.57707" y2="-0.5" transform="matrix(0.658505 0.752577 -0.658505 0.752577 14 12.9497)" stroke="white"/>
</svg>
