<svg width="15" height="16" viewBox="0 0 15 16" fill="none" xmlns="http://www.w3.org/2000/svg">
<path fill-rule="evenodd" clip-rule="evenodd" d="M4.5 14.4934V2.49341H1.5V14.4934H4.5ZM1.5 0.993408H4.5C4.89782 0.993408 5.27936 1.15144 5.56066 1.43275C5.84196 1.71405 6 2.09558 6 2.49341V14.4934C6 14.8912 5.84196 15.2728 5.56066 15.5541C5.27936 15.8354 4.89782 15.9934 4.5 15.9934H1.5C1.10218 15.9934 0.720644 15.8354 0.43934 15.5541C0.158035 15.2728 0 14.8912 0 14.4934V2.49341C0 2.09558 0.158035 1.71405 0.43934 1.43275C0.720644 1.15144 1.10218 0.993408 1.5 0.993408ZM13.5 14.4934V2.49341H10.5V14.4934H13.5ZM10.5 0.993408H13.5C13.8978 0.993408 14.2794 1.15144 14.5607 1.43275C14.842 1.71405 15 2.09558 15 2.49341V14.4934C15 14.8912 14.842 15.2728 14.5607 15.5541C14.2794 15.8354 13.8978 15.9934 13.5 15.9934H10.5C10.1022 15.9934 9.72064 15.8354 9.43934 15.5541C9.15804 15.2728 9 14.8912 9 14.4934V2.49341C9 2.09558 9.15804 1.71405 9.43934 1.43275C9.72064 1.15144 10.1022 0.993408 10.5 0.993408Z" fill="white"/>
</svg>
