<svg width="25" height="29" viewBox="0 0 25 29" fill="none" xmlns="http://www.w3.org/2000/svg">
<path d="M15.3393 24.2767L10.7115 24.2767C10.1131 24.2767 9.60315 24.748 9.83294 25.2645C10.3092 26.3349 11.5588 27 13.0254 27C14.492 27 15.7416 26.3349 16.2178 25.2645C16.4476 24.748 15.9376 24.2767 15.3393 24.2767Z" stroke="white" stroke-width="2.23148" stroke-linecap="round"/>
<path d="M21.1744 20.6456H3.75496C2.25372 20.6456 1.44812 18.9955 2.43172 17.9351C3.26043 17.0418 3.71667 15.8989 3.71667 14.7164V9.77819C3.71667 6.67208 6.411 4.15408 9.73334 4.15408H9.79963C9.84633 4.15408 9.88322 4.08666 9.88516 4.04303C10.0065 1.31899 15.0736 1.31899 15.195 4.04303C15.1969 4.08666 15.2349 4.15408 15.2816 4.15407L15.3422 4.15405C18.5761 4.1525 21.2179 6.58753 21.2179 9.61097V14.4816C21.2179 15.7104 21.6914 16.8981 22.5518 17.827C23.5737 18.9303 22.7354 20.6456 21.1744 20.6456Z" stroke="white" stroke-width="2.23148" stroke-linecap="round"/>
</svg>
