<svg width="50" height="50" viewBox="0 0 50 50" fill="none" xmlns="http://www.w3.org/2000/svg">
<path d="M33.215 23.6771C34.367 24.5155 34.367 26.2334 33.215 27.0718C29.9828 29.4243 26.4515 31.3358 22.7145 32.7559L21.8786 33.0735C20.7479 33.5032 19.5097 32.7773 19.3325 31.5808C18.7228 27.4657 18.7228 23.2832 19.3325 19.1681C19.5097 17.9716 20.7479 17.2457 21.8786 17.6753L22.7145 17.9929C26.4515 19.413 29.9828 21.3245 33.215 23.6771Z" stroke="white" stroke-width="2.96042"/>
<path d="M5.28776 25.3751C5.28776 20.721 5.29102 17.3571 5.72911 14.6969C6.15743 12.0961 6.99052 10.2509 8.6213 8.62008C10.2521 6.9893 12.0973 6.15621 14.6982 5.72789C17.3583 5.2898 20.7222 5.28654 25.3763 5.28654C30.0304 5.28654 33.3943 5.2898 36.0544 5.72789C38.6553 6.15621 40.5005 6.9893 42.1313 8.62008C43.7621 10.2509 44.5952 12.0961 45.0235 14.6969C45.4616 17.3571 45.4648 20.721 45.4648 25.3751C45.4648 30.0292 45.4616 33.393 45.0235 36.0532C44.5952 38.6541 43.7621 40.4993 42.1313 42.1301C40.5005 43.7609 38.6553 44.594 36.0544 45.0223C33.3943 45.4604 30.0304 45.4636 25.3763 45.4636C20.7222 45.4636 17.3583 45.4604 14.6982 45.0223C12.0973 44.594 10.2521 43.7609 8.62131 42.1301C6.99052 40.4993 6.15743 38.6541 5.72911 36.0532C5.29102 33.393 5.28776 30.0292 5.28776 25.3751Z" stroke="white" stroke-width="2.11458"/>
</svg>
