<svg width="41" height="28" viewBox="0 0 41 28" fill="none" xmlns="http://www.w3.org/2000/svg">
<path fill-rule="evenodd" clip-rule="evenodd" d="M23.0455 7.64019C23.118 7.0962 23.1558 6.53738 23.1558 5.96747C23.1558 5.39694 23.1179 4.83752 23.0453 4.29297H34.6831C35.6074 4.29297 36.3567 5.04227 36.3567 5.96658C36.3567 6.89089 35.6074 7.64019 34.6831 7.64019L23.0455 7.64019ZM7.3021 7.64019L4.52908 7.64019C3.60477 7.64019 2.85547 6.89089 2.85547 5.96658C2.85547 5.04227 3.60477 4.29297 4.52908 4.29297H7.30234C7.22968 4.83752 7.19185 5.39694 7.19185 5.96747C7.19185 6.53738 7.22959 7.0962 7.3021 7.64019Z" fill="white"/>
<circle cx="15.1998" cy="5.96762" r="4.01666" stroke="white" stroke-width="3.12407"/>
<path fill-rule="evenodd" clip-rule="evenodd" d="M14.5112 20.1913C14.4569 20.6476 14.4289 21.1138 14.4289 21.5876C14.4289 22.2548 14.4845 22.9069 14.5907 23.5377L4.7664 23.6737C3.84218 23.6865 3.08537 22.9476 3.07601 22.0233C3.06665 21.099 3.80829 20.3394 4.73251 20.3266L14.5112 20.1913ZM31.4933 19.9562L34.454 19.9152C35.3783 19.9024 36.1351 20.6413 36.1444 21.5656C36.1538 22.4899 35.4122 23.2495 34.4879 23.2623L31.4811 23.3039C31.5632 22.7462 31.606 22.1728 31.606 21.5876C31.606 21.0321 31.5675 20.4872 31.4933 19.9562Z" fill="white"/>
<path d="M19.5589 21.5786C19.5589 19.3603 21.3573 17.562 23.5756 17.562C25.7939 17.562 27.5923 19.3603 27.5923 21.5786C27.5923 23.797 25.7939 25.5953 23.5756 25.5953C21.3573 25.5953 19.5589 23.797 19.5589 21.5786Z" stroke="white" stroke-width="3.12407"/>
</svg>
