<svg width="64" height="82" viewBox="0 0 64 82" fill="none" xmlns="http://www.w3.org/2000/svg">
    <defs>
        <linearGradient id="paint0_linear_7203_102666" x1="22.5539" y1="69.9991" x2="58.898"
            y2="32.152" gradientUnits="userSpaceOnUse">
            <stop stop-color="#A6D65E" />
            <stop offset="1" stop-color="#4AB272" />
        </linearGradient>
        <linearGradient id="paint1_linear_7203_102666" x1="26.9414" y1="75.6816" x2="-25.1932"
            y2="34.7624" gradientUnits="userSpaceOnUse">
            <stop stop-color="#FC9FFF" />
            <stop offset="1" stop-color="#FF3C6D" />
        </linearGradient>
        <linearGradient id="paint2_linear_7203_102666" x1="40.477" y1="65.6816" x2="93.3821"
            y2="22.4753" gradientUnits="userSpaceOnUse">
            <stop stop-color="#0AE8FF" />
            <stop offset="1" stop-color="#0043EF" />
        </linearGradient>
        <linearGradient id="paint3_linear_7203_102666" x1="32.0039" y1="58.7505" x2="19.0808"
            y2="81.3659" gradientUnits="userSpaceOnUse">
            <stop stop-color="#FF0D48" />
            <stop offset="1" stop-color="#FF79DB" />
        </linearGradient>
    </defs>
    <path
        d="M37.2375 57.1741C36.6098 59.2802 34.5815 60.6241 32.0039 60.6241C29.4263 60.6241 27.398 59.2802 26.7703 57.1741C24.7522 50.4031 22.6289 38.4498 22.6289 28.7491C22.6289 19.5628 23.8751 12.8167 25.7696 8.44188C27.6904 4.00612 30.0151 2.49915 32.0039 2.49915C33.9927 2.49915 36.3174 4.00612 38.2383 8.44188C40.1327 12.8167 41.3789 19.5628 41.3789 28.7491C41.3789 38.4498 39.2556 50.4031 37.2375 57.1741Z"
        stroke="url(#paint0_linear_7203_102666)" stroke-width="3.75" />
    <path
        d="M20.4625 60.1909C20.8269 60.4144 21.275 60.5561 21.7937 60.6053C19.7703 54.9697 15.1289 40.7667 15.1289 28.7498C15.1289 18.052 18.7905 9.22489 21.0795 4.74337C11.6715 6.7207 2.0039 16.3828 2.0039 28.7498C2.0039 35.348 4.74675 42.0815 8.51478 47.8051C12.2859 53.5334 16.9383 58.0294 20.4625 60.1909Z"
        stroke="url(#paint1_linear_7203_102666)" stroke-width="3.75" />
    <path
        d="M43.5434 60.1909C43.179 60.4144 42.7309 60.5561 42.2122 60.6053C44.2356 54.9697 48.877 40.7667 48.877 28.7498C48.877 18.052 45.2153 9.22489 42.9263 4.74337C52.3344 6.7207 62.002 16.3828 62.002 28.7498C62.002 35.348 59.2591 42.0815 55.4911 47.8051C51.72 53.5334 47.0676 58.0294 43.5434 60.1909Z"
        stroke="url(#paint2_linear_7203_102666)" stroke-width="3.75" />
    <path
        d="M20.7539 68.1255L26.3789 68.1255C26.3789 70.1966 28.0578 71.8755 30.1289 71.8755H33.8789C35.95 71.8755 37.6289 70.1966 37.6289 68.1255L43.2539 68.1255V77.5005C43.2539 78.536 42.4144 79.3755 41.3789 79.3755H22.6289C21.5934 79.3755 20.7539 78.536 20.7539 77.5005V68.1255ZM37.2539 68.1255L37.2545 68.1255C37.2543 68.1255 37.2541 68.1255 37.2539 68.1255Z"
        stroke="url(#paint3_linear_7203_102666)" stroke-width="3.75" />
</svg>
