<svg width="24" height="24" viewBox="0 0 24 24" fill="none" xmlns="http://www.w3.org/2000/svg">
<path d="M21.3723 4.78851L21.3724 4.78855C21.4132 4.81132 21.4452 4.84283 21.4668 4.87846L21.8941 4.61881L21.4668 4.87846C21.4879 4.91306 21.4989 4.95099 21.5 4.98885V16.0738C21.4998 16.1141 21.4884 16.1546 21.4657 16.1913C21.4645 16.1928 21.4607 16.1974 21.4534 16.205C21.4413 16.2177 21.4253 16.2326 21.4068 16.248C21.3884 16.2634 21.371 16.2763 21.3578 16.2854C21.3552 16.2872 21.353 16.2887 21.3512 16.2899C21.3506 16.2903 21.35 16.2907 21.3495 16.291C20.5765 16.6649 19.9844 16.9093 19.3728 17.0597C18.764 17.2094 18.1137 17.2713 17.2251 17.254C15.6897 17.1656 14.1916 16.7637 12.8292 16.0755C11.7734 15.5271 10.6169 15.1863 9.42589 15.0719L9.40276 15.0697L9.37952 15.0696C8.45887 15.067 7.43463 15.1567 6.5 15.4813V3.84935C7.35567 3.57034 8.35048 3.50201 9.31925 3.50003C10.5873 3.60735 11.8187 3.96484 12.9375 4.54996L12.9375 4.54998L12.9411 4.55182C14.2331 5.21431 15.6524 5.60937 17.1092 5.71255L17.121 5.71339L17.1329 5.71367C17.9756 5.73316 18.5789 5.66632 19.1733 5.50687C19.6767 5.37185 20.1676 5.17092 20.7676 4.92533C20.8551 4.88954 20.9448 4.8528 21.0373 4.81518L21.0659 4.80355L21.0928 4.78851C21.1343 4.76532 21.1825 4.75252 21.2326 4.75252C21.2826 4.75252 21.3309 4.76532 21.3723 4.78851Z" stroke="white"/>
<rect x="2" y="3.23071" width="2.76923" height="19.3846" rx="1.38462" stroke="white"/>
</svg>
