<svg width="27" height="27" viewBox="0 0 27 27" fill="none" xmlns="http://www.w3.org/2000/svg">
<path fill-rule="evenodd" clip-rule="evenodd" d="M10.27 18.5112C14.8211 18.5112 18.5104 14.8218 18.5104 10.2708C18.5104 5.7197 14.8211 2.03035 10.27 2.03035C5.71897 2.03035 2.02962 5.7197 2.02962 10.2708C2.02962 14.8218 5.71897 18.5112 10.27 18.5112ZM10.27 19.9583C15.6203 19.9583 19.9575 15.621 19.9575 10.2708C19.9575 4.92049 15.6203 0.583252 10.27 0.583252C4.91976 0.583252 0.58252 4.92049 0.58252 10.2708C0.58252 15.621 4.91976 19.9583 10.27 19.9583Z" fill="white"/>
<path fill-rule="evenodd" clip-rule="evenodd" d="M11.2007 4.39776C10.2739 4.25096 9.32543 4.3256 8.43294 4.61559L8.0752 3.51457C9.14144 3.16813 10.2745 3.07895 11.3818 3.25433C12.4891 3.42972 13.5392 3.86467 14.4462 4.52365C15.3532 5.18262 16.0914 6.0469 16.6004 7.04581C17.1093 8.04473 17.3747 9.14993 17.3747 10.271H16.217C16.217 9.33262 15.9949 8.40752 15.5689 7.57139C15.1428 6.73525 14.525 6.01181 13.7658 5.46023C13.0066 4.90864 12.1276 4.54456 11.2007 4.39776Z" fill="white"/>
<path fill-rule="evenodd" clip-rule="evenodd" d="M18.8354 18.4053L18.4054 18.8354C18.2616 18.9792 18.2473 19.2075 18.3722 19.368C19.7554 21.1464 21.3546 22.7456 23.1329 24.1288C23.2935 24.2536 23.5218 24.2394 23.6656 24.0956L24.0956 23.6656C24.2394 23.5218 24.2537 23.2934 24.1288 23.1329C22.7456 21.3546 21.1464 19.7553 19.3681 18.3722C19.2075 18.2473 18.9792 18.2615 18.8354 18.4053ZM17.3821 17.8121C16.7223 18.472 16.657 19.5199 17.2299 20.2565C18.6868 22.1297 20.3713 23.8141 22.2445 25.2711C22.9811 25.844 24.029 25.7787 24.6889 25.1189L25.1189 24.6889C25.7787 24.029 25.844 22.9811 25.2711 22.2445C23.8142 20.3713 22.1297 18.6868 20.2565 17.2299C19.5199 16.657 18.472 16.7222 17.8121 17.3821L17.3821 17.8121Z" fill="white"/>
</svg>
