<svg width="20" height="20" viewBox="0 0 20 20" fill="none" xmlns="http://www.w3.org/2000/svg">
<path d="M17.3558 14.3744L17.6562 15.1649C18.1534 16.4732 17.3134 17.9058 15.9291 18.1109C11.9981 18.6932 8.00274 18.6932 4.07176 18.1109C2.68738 17.9058 1.84744 16.4732 2.34457 15.1649L2.64499 14.3744C4.00073 10.8066 5.82566 7.43534 8.07162 4.34948C9.02434 3.04049 10.9765 3.04049 11.9292 4.34948C14.1752 7.43534 16.0001 10.8066 17.3558 14.3744Z" stroke="white" stroke-width="2"/>
<path d="M10.4994 15.5001C10.4994 15.7762 10.2755 16.0001 9.99939 16.0001C9.72325 16.0001 9.49939 15.7762 9.49939 15.5001C9.49939 15.2239 9.72325 15.0001 9.99939 15.0001C10.2755 15.0001 10.4994 15.2239 10.4994 15.5001Z" stroke="white"/>
<path d="M9.99981 7.99996V12" stroke="white" stroke-width="2" stroke-linecap="round"/>
</svg>
