<svg width="20" height="20" viewBox="0 0 20 20" fill="none" xmlns="http://www.w3.org/2000/svg">
<path d="M10.0004 19.0001C7.78322 19.0001 6.2402 18.997 5.03189 18.798C3.87969 18.6082 3.11138 18.251 2.43041 17.5701C1.74945 16.8891 1.39223 16.1208 1.20248 14.9686C1.00349 13.7603 1.00041 12.2173 1.00041 10.0001C1.00041 7.78289 1.00349 6.23986 1.20248 5.03155C1.39223 3.87936 1.74945 3.11104 2.43041 2.43008C3.11138 1.74911 3.87969 1.39189 5.03189 1.20214C6.2402 1.00315 7.78322 1.00007 10.0004 1.00007C12.2176 1.00007 13.7606 1.00315 14.9689 1.20214C16.1211 1.39189 16.8894 1.74911 17.5704 2.43008C18.2514 3.11104 18.6086 3.87936 18.7983 5.03155C18.9973 6.23986 19.0004 7.78289 19.0004 10.0001C19.0004 12.2173 18.9973 13.7603 18.7983 14.9686C18.6086 16.1208 18.2514 16.8891 17.5704 17.5701C16.8894 18.251 16.1211 18.6082 14.9689 18.798C13.7606 18.997 12.2176 19.0001 10.0004 19.0001Z" stroke="white" stroke-width="2"/>
<path d="M7.00074 9.99994L8.26009 11.5741C8.6472 12.058 9.37671 12.0769 9.78839 11.6138L13.0005 7.99994" stroke="white" stroke-width="2" stroke-linecap="round"/>
</svg>
