<svg width="24" height="24" viewBox="0 0 24 24" fill="none" xmlns="http://www.w3.org/2000/svg">
<path fill-rule="evenodd" clip-rule="evenodd" d="M12 12.4709C8.75812 10.7088 5.56302 10.2033 3.99665 10.0583C3.44672 10.0074 3 10.4477 3 10.9999V15.2644V19.4803C3 20.0512 3.47707 20.5214 4.0456 20.5734C5.48995 20.7058 8.33745 21.2003 12 22.9999C15.6625 21.2003 18.5101 20.7058 19.9544 20.5735C20.5229 20.5214 21 20.0512 21 19.4803V15.2644V10.9999C21 10.4477 20.5533 10.0074 20.0034 10.0583C18.437 10.2033 15.2419 10.7088 12 12.4709ZM12 21.89C8.42665 20.2028 5.6282 19.7143 4.13686 19.5776C4.09776 19.574 4.05573 19.5543 4.02595 19.5237C4.0124 19.5098 4.00563 19.4979 4.00267 19.491C4.00012 19.485 4 19.4822 4 19.4803V15.2644V11.0631C5.52296 11.2128 8.50746 11.7107 11.5224 13.3495L12 13.6091L12.4776 13.3495C15.4925 11.7107 18.477 11.2128 20 11.0631V15.2644V19.4803C20 19.4822 19.9999 19.485 19.9973 19.4909C19.9944 19.4979 19.9876 19.5098 19.9741 19.5237C19.9443 19.5543 19.9022 19.574 19.8631 19.5776C18.3718 19.7143 15.5733 20.2028 12 21.89Z" fill="white"/>
<path d="M8.61926 8.99994C8.48031 8.48138 8.46252 7.9378 8.56725 7.41126C8.67199 6.88471 8.89645 6.38932 9.22326 5.96341C9.55008 5.53749 9.9705 5.19246 10.452 4.95502C10.9335 4.71757 11.4631 4.59407 12 4.59407C12.5369 4.59407 13.0665 4.71757 13.548 4.95502C14.0295 5.19246 14.4499 5.53749 14.7767 5.96341C15.1036 6.38932 15.328 6.88471 15.4327 7.41126C15.5375 7.9378 15.5197 8.48138 15.3807 8.99994" stroke="white" stroke-linecap="round"/>
<path d="M12 21.5V13.5" stroke="white" stroke-width="2" stroke-linecap="square"/>
<path d="M14 15L19 13.5" stroke="white" stroke-linecap="round"/>
</svg>
