<svg width="30" height="30" viewBox="0 0 30 30" fill="none" xmlns="http://www.w3.org/2000/svg">
<path d="M15 2.5C7.50006 2.5 3.12501 7.5 3.12501 13.75C3.12501 16.0103 3.125 18.4731 3.125 20.6254C3.125 21.6609 4.01076 22.5 5.0463 22.5C7.11736 22.5 8.75 20.8211 8.75 18.7501C8.75 18.5422 8.75 18.3336 8.75 18.125C8.75 15.7088 6.79125 13.75 4.375 13.75C4.375 8.75 7.50006 3.75 15 3.75C22.5 3.75 25.625 8.75 25.625 13.75C23.2087 13.75 21.25 15.7087 21.25 18.125C21.25 19.5833 21.25 21.0417 21.25 22.5C21.25 24.5711 19.5711 26.25 17.5 26.25V24.9883C17.5 24.6278 17.2547 24.3137 16.9051 24.2263C15.6543 23.9136 14.3458 23.9136 13.095 24.2263C12.7453 24.3137 12.5 24.6278 12.5 24.9883V25.7451C12.5 26.7143 13.2859 27.5 14.2551 27.5C14.5506 27.5 14.8193 27.5 15 27.5C15.2322 27.5 16.2676 27.5 17.4995 27.5C20.261 27.5 22.5 25.2614 22.5 22.5C23.2366 22.5 23.8997 22.5 24.6434 22.5C25.8759 22.5 26.875 21.501 26.875 20.2686C26.875 18.2575 26.875 16.0151 26.875 13.75C26.875 6.8575 22.5 2.5 15 2.5Z" fill="white"/>
</svg>
