<svg width="16" height="18" viewBox="0 0 16 18" fill="none" xmlns="http://www.w3.org/2000/svg">
<path d="M9.56077 2.3835C9.8473 3.60677 9.88628 4.87498 9.67544 6.11354C9.46459 7.3521 9.00817 8.53598 8.33302 9.59553C7.65788 10.6551 6.77765 11.5689 5.74412 12.2833C4.71059 12.9976 3.54463 13.498 2.31483 13.7551C2.96143 14.424 3.73582 14.9562 4.59203 15.3201C5.44824 15.684 6.36882 15.8721 7.29915 15.8734C7.38571 15.8734 7.47302 15.8766 7.56027 15.8734C9.17986 15.8161 10.7282 15.1933 11.9364 14.1133C13.1446 13.0332 13.9363 11.564 14.1741 9.96093C14.4118 8.35786 14.0805 6.72216 13.2378 5.33792C12.395 3.95369 11.094 2.90836 9.56077 2.3835ZM8.63733 0.875C8.67392 0.875057 8.71044 0.87832 8.74646 0.88475C10.7366 1.23824 12.5256 2.31563 13.7688 3.90941C15.012 5.50318 15.6215 7.5006 15.4799 9.51694C15.3383 11.5333 14.4556 13.4259 13.0018 14.8303C11.5481 16.2347 9.62611 17.0514 7.60608 17.1233C7.50352 17.1271 7.40096 17.1233 7.29927 17.1233C5.98751 17.124 4.69487 16.8088 3.53063 16.2045C2.3664 15.6001 1.3648 14.7243 0.610521 13.6511C0.549374 13.5586 0.51368 13.4516 0.507032 13.3409C0.500385 13.2303 0.523021 13.1198 0.572659 13.0207C0.622297 12.9215 0.697186 12.8372 0.789779 12.7762C0.882372 12.7153 0.989402 12.6798 1.10008 12.6733C2.34872 12.5638 3.55544 12.1686 4.62698 11.5183C5.69852 10.868 6.60618 9.98 7.27979 8.92296C7.9534 7.86592 8.37493 6.66815 8.51179 5.42221C8.64865 4.17628 8.49718 2.91556 8.06908 1.7375C8.03267 1.64325 8.01929 1.54166 8.03007 1.44119C8.04086 1.34072 8.07549 1.24428 8.13108 1.1599C8.18667 1.07552 8.26162 1.00565 8.34968 0.95609C8.43773 0.906534 8.53636 0.878732 8.63733 0.875Z" fill="white"/>
</svg>
