<svg width="24" height="24" viewBox="0 0 24 24" fill="none" xmlns="http://www.w3.org/2000/svg">
<path d="M7.5 10.5H16.5M19.5 3H19C17.8954 3 17 3.89543 17 5V5.09524C17 6.14721 17.8528 7 18.9048 7V7C18.9574 7 19 7.04264 19 7.09524V13.5V18.0687C19 19.1569 18.159 20.0601 17.0736 20.1376V20.1376C13.6955 20.3789 10.3045 20.3789 6.92636 20.1376V20.1376C5.84095 20.0601 5 19.1569 5 18.0687V13V7.09524C5 7.04264 4.95736 7 4.90476 7V7C3.85279 7 3 6.14721 3 5.09524V5C3 3.89543 3.89543 3 5 3V3H11.5L19.5 3Z" stroke="white" stroke-linecap="round"/>
<path d="M7.5 13.5H16.5" stroke="white" stroke-linecap="round"/>
<path d="M7.5 16.5H12.5" stroke="white" stroke-linecap="round"/>
</svg>
