<svg width="19" height="18" viewBox="0 0 19 18" fill="none" xmlns="http://www.w3.org/2000/svg">
<g clip-path="url(#clip0_1473_11054)">
<g filter="url(#filter0_d_1473_11054)">
<path d="M18.0417 8.70833C18.0417 13.5183 14.1433 17.4167 9.33333 17.4167C4.52334 17.4167 0.625 13.5183 0.625 8.70833C0.625 6.27272 1.62714 4.06842 3.23886 2.488C3.66815 2.06755 4.35666 2.07435 4.77847 2.50365C5.20028 2.93328 5.19347 3.6228 4.76146 4.04461C3.55148 5.2284 2.80208 6.88162 2.80208 8.70833C2.80208 12.3141 5.69692 15.2396 9.33333 15.2396C12.9391 15.2396 15.8646 12.3141 15.8646 8.70833C15.8646 5.47332 13.5106 2.78565 10.4219 2.26723V3.26562C10.4219 3.86772 9.93543 4.35417 9.33333 4.35417C8.73123 4.35417 8.24479 3.86772 8.24479 3.26562V1.08854C8.24479 0.487463 8.73123 0 9.33333 0C14.1433 0 18.0417 3.89834 18.0417 8.70833ZM9.88101 8.13004C10.228 8.4498 10.228 8.96686 9.88101 9.25601C9.59186 9.60298 9.0748 9.60298 8.75504 9.25601L6.03369 6.53465C5.71733 6.24551 5.71733 5.72845 6.03369 5.40869C6.35345 5.09233 6.87051 5.09233 7.15965 5.40869L9.88101 8.13004Z" fill="white"/>
</g>
</g>
<defs>
<filter id="filter0_d_1473_11054" x="-30.1061" y="-26.3409" width="78.8781" height="78.8786" filterUnits="userSpaceOnUse" color-interpolation-filters="sRGB">
<feFlood flood-opacity="0" result="BackgroundImageFix"/>
<feColorMatrix in="SourceAlpha" type="matrix" values="0 0 0 0 0 0 0 0 0 0 0 0 0 0 0 0 0 0 127 0" result="hardAlpha"/>
<feOffset dy="4.39015"/>
<feGaussianBlur stdDeviation="15.3655"/>
<feComposite in2="hardAlpha" operator="out"/>
<feColorMatrix type="matrix" values="0 0 0 0 0 0 0 0 0 0 0 0 0 0 0 0 0 0 0.25 0"/>
<feBlend mode="normal" in2="BackgroundImageFix" result="effect1_dropShadow_1473_11054"/>
<feBlend mode="normal" in="SourceGraphic" in2="effect1_dropShadow_1473_11054" result="shape"/>
</filter>
<clipPath id="clip0_1473_11054">
<rect width="17.4167" height="17.4167" fill="white" transform="translate(0.625)"/>
</clipPath>
</defs>
</svg>
