<svg width="15" height="5" viewBox="0 0 15 5" fill="none" xmlns="http://www.w3.org/2000/svg">
<path d="M10.5315 2.05877C10.5177 1.23046 11.1779 0.547754 12.0062 0.53391C12.8346 0.520067 13.5173 1.18032 13.5311 2.00863C13.5449 2.83695 12.8847 3.51965 12.0564 3.53349C11.2281 3.54733 10.5454 2.88708 10.5315 2.05877ZM5.53222 2.14232C5.51838 1.31401 6.17863 0.631308 7.00694 0.617464C7.83525 0.60362 8.51796 1.26388 8.5318 2.09219C8.54564 2.9205 7.88539 3.6032 7.05707 3.61705C6.22876 3.63089 5.54606 2.97063 5.53222 2.14232ZM0.532917 2.22587C0.519073 1.39756 1.17933 0.714861 2.00764 0.701018C2.83595 0.687174 3.51865 1.34743 3.5325 2.17574C3.54634 3.00405 2.88609 3.68676 2.05777 3.7006C1.22946 3.71444 0.546761 3.05419 0.532917 2.22587Z" fill="white" stroke="white"/>
</svg>
