<svg width="24" height="24" viewBox="0 0 24 24" fill="none" xmlns="http://www.w3.org/2000/svg">
<path d="M6.13808 9.37838C6.0198 9.40889 5.89736 9.44176 5.77414 9.47576C4.73949 9.76123 3.64845 9.80365 2.60917 9.53554V9.53554C2.25057 9.44302 2 9.1196 2 8.74926V4.27027V4.2C2 2.98497 2.98497 2 4.2 2V2V2C5.42108 2 6.41908 2.97883 6.41544 4.19991C6.41419 4.61908 6.40978 5.04039 6.4 5.40541V5.40541C6.27836 9.94513 6.27836 14.4873 6.4 19.027V19.027C6.40978 19.392 6.41419 19.8134 6.41544 20.2325C6.41905 21.4414 7.39113 22.4324 8.6 22.4324V22.4324M8.6 22.4324V22.4324C9.81503 22.4324 10.8 21.4475 10.8 20.2324V19.1681C10.8 18.7649 11.1037 18.4265 11.5045 18.3829V18.3829C14.5093 18.0565 17.5407 18.0565 20.5455 18.3829V18.3829C20.9463 18.4265 21.25 18.7649 21.25 19.1681V20.7297V21.0397C21.25 21.8261 20.6456 22.4804 19.8616 22.5426L19.6119 22.5625C15.9449 22.8536 12.2591 22.81 8.6 22.4324V22.4324Z" stroke="white" stroke-width="1.5" stroke-linecap="round"/>
<path d="M17.75 17.75V16.875" stroke="white" stroke-width="2.23148" stroke-linecap="round"/>
<path d="M17.75 5.5V4.5V4.5C17.75 3.35076 16.9086 2.37886 15.7648 2.26767C14.4213 2.13706 12.5224 2 10.47 2C6.55 2 3.75 2.5 3.75 2.5" stroke="white" stroke-width="1.5" stroke-linecap="round"/>
<path d="M15.3777 13.942L15.3647 13.8451C15.1272 12.0813 15.1272 10.2937 15.3647 8.52986L15.3777 8.43304C15.4449 7.9341 15.9672 7.63474 16.4317 7.8289C18.0603 8.50968 19.5858 9.41484 20.9638 10.5181L21.0171 10.5607C21.4186 10.8821 21.4186 11.4929 21.0171 11.8143L20.9638 11.8569C19.5858 12.9602 18.0603 13.8653 16.4317 14.5461C15.9672 14.7403 15.4449 14.4409 15.3777 13.942Z" stroke="white" stroke-width="1.5"/>
</svg>
